<svg xmlns="http://www.w3.org/2000/svg" version="1.1" width="252.7mm" height="172.7mm" viewBox = " 0 0 895.3944369999999 611.929637" >
<!-- Front--> 
<g transform="translate(22.5000185, 22.5000185) " > 
<polygon style="stroke:#000000; fill:none; stroke-width:0.90000074" points="0, 0 59.3504425, 0 59.3504425, 10.62993 118.700885, 10.62993 118.700885, 0 164.763915, 0 164.763915, 10.62993 224.1143575, 10.62993 224.1143575, 0 283.46479999999997, 0 283.46479999999997, 59.3504425 272.83486999999997, 59.3504425 272.83486999999997, 118.700885 283.46479999999997, 118.700885 283.46479999999997, 164.763915 272.83486999999997, 164.763915 272.83486999999997, 224.1143575 283.46479999999997, 224.1143575 283.46479999999997, 283.46479999999997 224.1143575, 283.46479999999997 224.1143575, 272.83486999999997 164.763915, 272.83486999999997 164.763915, 283.46479999999997 118.700885, 283.46479999999997 118.700885, 272.83486999999997 59.3504425, 272.83486999999997 59.3504425, 283.46479999999997 0, 283.46479999999997 0, 224.1143575 10.62993, 224.1143575 10.62993, 164.763915 0, 164.763915 0, 118.700885 10.62993, 118.700885 10.62993, 59.3504425 0, 59.3504425 "/> 
</g>
<!-- Back--> 
<g transform="translate(305.9648185, 22.5000185) " > 
<polygon style="stroke:#000000; fill:none; stroke-width:0.90000074" points="0, 0 59.3504425, 0 59.3504425, 10.62993 118.700885, 10.62993 118.700885, 0 164.763915, 0 164.763915, 10.62993 224.1143575, 10.62993 224.1143575, 0 283.46479999999997, 0 283.46479999999997, 59.3504425 272.83486999999997, 59.3504425 272.83486999999997, 118.700885 283.46479999999997, 118.700885 283.46479999999997, 164.763915 272.83486999999997, 164.763915 272.83486999999997, 224.1143575 283.46479999999997, 224.1143575 283.46479999999997, 283.46479999999997 224.1143575, 283.46479999999997 224.1143575, 272.83486999999997 164.763915, 272.83486999999997 164.763915, 283.46479999999997 118.700885, 283.46479999999997 118.700885, 272.83486999999997 59.3504425, 272.83486999999997 59.3504425, 283.46479999999997 0, 283.46479999999997 0, 224.1143575 10.62993, 224.1143575 10.62993, 164.763915 0, 164.763915 0, 118.700885 10.62993, 118.700885 10.62993, 59.3504425 0, 59.3504425 "/> 
</g>
<!-- Left--> 
<g transform="translate(589.4296185, 22.5000185) " > 
<polygon style="stroke:#000000; fill:none; stroke-width:0.90000074" points="10.62993, 0 59.3504425, 0 59.3504425, 10.62993 118.700885, 10.62993 118.700885, 0 164.763915, 0 164.763915, 10.62993 224.1143575, 10.62993 224.1143575, 0 272.83486999999997, 0 272.83486999999997, 59.3504425 283.46479999999997, 59.3504425 283.46479999999997, 118.700885 272.83486999999997, 118.700885 272.83486999999997, 164.763915 283.46479999999997, 164.763915 283.46479999999997, 224.1143575 272.83486999999997, 224.1143575 272.83486999999997, 283.46479999999997 224.1143575, 283.46479999999997 224.1143575, 272.83486999999997 164.763915, 272.83486999999997 164.763915, 283.46479999999997 118.700885, 283.46479999999997 118.700885, 272.83486999999997 59.3504425, 272.83486999999997 59.3504425, 283.46479999999997 10.62993, 283.46479999999997 10.62993, 224.1143575 0, 224.1143575 0, 164.763915 10.62993, 164.763915 10.62993, 118.700885 0, 118.700885 0, 59.3504425 10.62993, 59.3504425 "/> 
</g>
<!-- Right--> 
<g transform="translate(589.4296185, 305.9648185) " > 
<polygon style="stroke:#000000; fill:none; stroke-width:0.90000074" points="10.62993, 0 59.3504425, 0 59.3504425, 10.62993 118.700885, 10.62993 118.700885, 0 164.763915, 0 164.763915, 10.62993 224.1143575, 10.62993 224.1143575, 0 272.83486999999997, 0 272.83486999999997, 59.3504425 283.46479999999997, 59.3504425 283.46479999999997, 118.700885 272.83486999999997, 118.700885 272.83486999999997, 164.763915 283.46479999999997, 164.763915 283.46479999999997, 224.1143575 272.83486999999997, 224.1143575 272.83486999999997, 283.46479999999997 224.1143575, 283.46479999999997 224.1143575, 272.83486999999997 164.763915, 272.83486999999997 164.763915, 283.46479999999997 118.700885, 283.46479999999997 118.700885, 272.83486999999997 59.3504425, 272.83486999999997 59.3504425, 283.46479999999997 10.62993, 283.46479999999997 10.62993, 224.1143575 0, 224.1143575 0, 164.763915 10.62993, 164.763915 10.62993, 118.700885 0, 118.700885 0, 59.3504425 10.62993, 59.3504425 "/> 
</g>
<!-- Top--> 
<g transform="translate(22.5000185, 305.9648185) " > 
<polygon style="stroke:#000000; fill:none; stroke-width:0.90000074" points="10.62993, 10.62993 59.3504425, 10.62993 59.3504425, 0 118.700885, 0 118.700885, 10.62993 164.763915, 10.62993 164.763915, 0 224.1143575, 0 224.1143575, 10.62993 272.83486999999997, 10.62993 272.83486999999997, 59.3504425 283.46479999999997, 59.3504425 283.46479999999997, 118.700885 272.83486999999997, 118.700885 272.83486999999997, 164.763915 283.46479999999997, 164.763915 283.46479999999997, 224.1143575 272.83486999999997, 224.1143575 272.83486999999997, 272.83486999999997 224.1143575, 272.83486999999997 224.1143575, 283.46479999999997 164.763915, 283.46479999999997 164.763915, 272.83486999999997 118.700885, 272.83486999999997 118.700885, 283.46479999999997 59.3504425, 283.46479999999997 59.3504425, 272.83486999999997 10.62993, 272.83486999999997 10.62993, 224.1143575 0, 224.1143575 0, 164.763915 10.62993, 164.763915 10.62993, 118.700885 0, 118.700885 0, 59.3504425 10.62993, 59.3504425 "/> 
</g>
<!-- Bottom--> 
<g transform="translate(305.9648185, 305.9648185) " > 
<polygon style="stroke:#000000; fill:none; stroke-width:0.90000074" points="10.62993, 10.62993 59.3504425, 10.62993 59.3504425, 0 118.700885, 0 118.700885, 10.62993 164.763915, 10.62993 164.763915, 0 224.1143575, 0 224.1143575, 10.62993 272.83486999999997, 10.62993 272.83486999999997, 59.3504425 283.46479999999997, 59.3504425 283.46479999999997, 118.700885 272.83486999999997, 118.700885 272.83486999999997, 164.763915 283.46479999999997, 164.763915 283.46479999999997, 224.1143575 272.83486999999997, 224.1143575 272.83486999999997, 272.83486999999997 224.1143575, 272.83486999999997 224.1143575, 283.46479999999997 164.763915, 283.46479999999997 164.763915, 272.83486999999997 118.700885, 272.83486999999997 118.700885, 283.46479999999997 59.3504425, 283.46479999999997 59.3504425, 272.83486999999997 10.62993, 272.83486999999997 10.62993, 224.1143575 0, 224.1143575 0, 164.763915 10.62993, 164.763915 10.62993, 118.700885 0, 118.700885 0, 59.3504425 10.62993, 59.3504425 "/> 
</g></svg>