0
SECTION
2
HEADER
9
$INSUNITS
70
4
9
$ACADVER
1
AC1014
9
$HANDSEED
5
FFFF
0
ENDSEC
0
SECTION
2
TABLES
0
TABLE
2
VPORT
5
8
100
AcDbSymbolTable
0
ENDTAB
0
TABLE
2
LTYPE
5
5
100
AcDbSymbolTable
0
LTYPE
5
14
100
AcDbSymbolTableRecord
100
AcDbLinetypeTableRecord
2
BYBLOCK
70
0
0
LTYPE
5
15
100
AcDbSymbolTableRecord
100
AcDbLinetypeTableRecord
2
BYLAYER
70
0
0
ENDTAB
0
TABLE
2
LAYER
5
2
100
AcDbSymbolTable
70
2
0
LAYER
5
50
100
AcDbSymbolTableRecord
100
AcDbLayerTableRecord
2
0
70
0
6
CONTINUOUS
0
ENDTAB
0
TABLE
2
STYLE
5
3
100
AcDbSymbolTable
70
1
0
STYLE
5
11
100
AcDbSymbolTableRecord
100
AcDbTextStyleTableRecord
2
STANDARD
70
0
0
ENDTAB
0
TABLE
2
VIEW
5
6
100
AcDbSymbolTable
70
0
0
ENDTAB
0
TABLE
2
UCS
5
7
100
AcDbSymbolTable
70
0
0
ENDTAB
0
TABLE
2
APPID
5
9
100
AcDbSymbolTable
70
2
0
APPID
5
12
100
AcDbSymbolTableRecord
100
AcDbRegAppTableRecord
2
ACAD
70
0
0
ENDTAB
0
TABLE
2
DIMSTYLE
5
A
100
AcDbSymbolTable
70
1
0
ENDTAB
0
TABLE
2
BLOCK_RECORD
5
1
100
AcDbSymbolTable
70
1
0
BLOCK_RECORD
5
1F
100
AcDbSymbolTableRecord
100
AcDbBlockTableRecord
2
*MODEL_SPACE
0
BLOCK_RECORD
5
1B
100
AcDbSymbolTableRecord
100
AcDbBlockTableRecord
2
*PAPER_SPACE
0
ENDTAB
0
ENDSEC
0
SECTION
2
BLOCKS
0
BLOCK
5
20
100
AcDbEntity
100
AcDbBlockBegin
2
*MODEL_SPACE
0
ENDBLK
5
21
100
AcDbEntity
100
AcDbBlockEnd
0
BLOCK
5
1C
100
AcDbEntity
100
AcDbBlockBegin
2
*PAPER_SPACE
0
ENDBLK
5
1D
100
AcDbEntity
100
AcDbBlockEnd
0
ENDSEC
0
SECTION
2
ENTITIES
0
LINE
5
100
100
AcDbEntity
8
0
100
AcDbLine
10
5.953129894791668
20
-5.953129894791668
30
0
11
21.656267806250003
21
-5.953129894791668
31
0
0
LINE
5
101
100
AcDbEntity
8
0
100
AcDbLine
10
21.656267806250003
20
-5.953129894791668
30
0
11
21.656267806250003
21
-8.7656322072916666
31
0
0
LINE
5
102
100
AcDbEntity
8
0
100
AcDbLine
10
21.656267806250003
20
-8.7656322072916666
30
0
11
37.359405717708341
21
-8.7656322072916666
31
0
0
LINE
5
103
100
AcDbEntity
8
0
100
AcDbLine
10
37.359405717708341
20
-8.7656322072916666
30
0
11
37.359405717708341
21
-5.9531298947916671
31
0
0
LINE
5
104
100
AcDbEntity
8
0
100
AcDbLine
10
37.359405717708341
20
-5.9531298947916671
30
0
11
49.546915738541671
21
-5.953129894791668
31
0
0
LINE
5
105
100
AcDbEntity
8
0
100
AcDbLine
10
49.546915738541671
20
-5.953129894791668
30
0
11
49.546915738541671
21
-8.7656322072916666
31
0
0
LINE
5
106
100
AcDbEntity
8
0
100
AcDbLine
10
49.546915738541671
20
-8.7656322072916666
30
0
11
65.250053650000012
21
-8.7656322072916666
31
0
0
LINE
5
107
100
AcDbEntity
8
0
100
AcDbLine
10
65.250053650000012
20
-8.7656322072916666
30
0
11
65.250053650000012
21
-5.9531298947916671
31
0
0
LINE
5
108
100
AcDbEntity
8
0
100
AcDbLine
10
65.250053650000012
20
-5.9531298947916671
30
0
11
80.95319156145834
21
-5.953129894791668
31
0
0
LINE
5
109
100
AcDbEntity
8
0
100
AcDbLine
10
80.95319156145834
20
-5.953129894791668
30
0
11
80.95319156145834
21
-21.656267806250003
31
0
0
LINE
5
110
100
AcDbEntity
8
0
100
AcDbLine
10
80.95319156145834
20
-21.656267806250003
30
0
11
78.140689248958338
21
-21.656267806250003
31
0
0
LINE
5
111
100
AcDbEntity
8
0
100
AcDbLine
10
78.140689248958338
20
-21.656267806250003
30
0
11
78.140689248958338
21
-37.359405717708341
31
0
0
LINE
5
112
100
AcDbEntity
8
0
100
AcDbLine
10
78.140689248958338
20
-37.359405717708341
30
0
11
80.95319156145834
21
-37.359405717708341
31
0
0
LINE
5
113
100
AcDbEntity
8
0
100
AcDbLine
10
80.95319156145834
20
-37.359405717708341
30
0
11
80.95319156145834
21
-49.546915738541671
31
0
0
LINE
5
114
100
AcDbEntity
8
0
100
AcDbLine
10
80.95319156145834
20
-49.546915738541671
30
0
11
78.140689248958338
21
-49.546915738541671
31
0
0
LINE
5
115
100
AcDbEntity
8
0
100
AcDbLine
10
78.140689248958338
20
-49.546915738541671
30
0
11
78.140689248958338
21
-65.250053650000012
31
0
0
LINE
5
116
100
AcDbEntity
8
0
100
AcDbLine
10
78.140689248958338
20
-65.250053650000012
30
0
11
80.95319156145834
21
-65.250053650000012
31
0
0
LINE
5
117
100
AcDbEntity
8
0
100
AcDbLine
10
80.95319156145834
20
-65.250053650000012
30
0
11
80.95319156145834
21
-80.95319156145834
31
0
0
LINE
5
118
100
AcDbEntity
8
0
100
AcDbLine
10
80.95319156145834
20
-80.95319156145834
30
0
11
65.250053650000012
21
-80.95319156145834
31
0
0
LINE
5
119
100
AcDbEntity
8
0
100
AcDbLine
10
65.250053650000012
20
-80.95319156145834
30
0
11
65.250053650000012
21
-78.140689248958338
31
0
0
LINE
5
120
100
AcDbEntity
8
0
100
AcDbLine
10
65.250053650000012
20
-78.140689248958338
30
0
11
49.546915738541685
21
-78.140689248958338
31
0
0
LINE
5
121
100
AcDbEntity
8
0
100
AcDbLine
10
49.546915738541685
20
-78.140689248958338
30
0
11
49.546915738541671
21
-80.95319156145834
31
0
0
LINE
5
122
100
AcDbEntity
8
0
100
AcDbLine
10
49.546915738541671
20
-80.95319156145834
30
0
11
37.359405717708334
21
-80.95319156145834
31
0
0
LINE
5
123
100
AcDbEntity
8
0
100
AcDbLine
10
37.359405717708334
20
-80.95319156145834
30
0
11
37.359405717708341
21
-78.140689248958338
31
0
0
LINE
5
124
100
AcDbEntity
8
0
100
AcDbLine
10
37.359405717708341
20
-78.140689248958338
30
0
11
21.65626780625
21
-78.140689248958338
31
0
0
LINE
5
125
100
AcDbEntity
8
0
100
AcDbLine
10
21.65626780625
20
-78.140689248958338
30
0
11
21.656267806250003
21
-80.95319156145834
31
0
0
LINE
5
126
100
AcDbEntity
8
0
100
AcDbLine
10
21.656267806250003
20
-80.95319156145834
30
0
11
5.9531298947916671
21
-80.95319156145834
31
0
0
LINE
5
127
100
AcDbEntity
8
0
100
AcDbLine
10
5.9531298947916671
20
-80.95319156145834
30
0
11
5.953129894791668
21
-65.250053650000012
31
0
0
LINE
5
128
100
AcDbEntity
8
0
100
AcDbLine
10
5.953129894791668
20
-65.250053650000012
30
0
11
8.7656322072916666
21
-65.250053650000012
31
0
0
LINE
5
129
100
AcDbEntity
8
0
100
AcDbLine
10
8.7656322072916666
20
-65.250053650000012
30
0
11
8.7656322072916666
21
-49.546915738541685
31
0
0
LINE
5
130
100
AcDbEntity
8
0
100
AcDbLine
10
8.7656322072916666
20
-49.546915738541685
30
0
11
5.9531298947916671
21
-49.546915738541671
31
0
0
LINE
5
131
100
AcDbEntity
8
0
100
AcDbLine
10
5.9531298947916671
20
-49.546915738541671
30
0
11
5.953129894791668
21
-37.359405717708334
31
0
0
LINE
5
132
100
AcDbEntity
8
0
100
AcDbLine
10
5.953129894791668
20
-37.359405717708334
30
0
11
8.7656322072916666
21
-37.359405717708341
31
0
0
LINE
5
133
100
AcDbEntity
8
0
100
AcDbLine
10
8.7656322072916666
20
-37.359405717708341
30
0
11
8.7656322072916666
21
-21.65626780625
31
0
0
LINE
5
134
100
AcDbEntity
8
0
100
AcDbLine
10
8.7656322072916666
20
-21.65626780625
30
0
11
5.9531298947916671
21
-21.656267806250003
31
0
0
LINE
5
135
100
AcDbEntity
8
0
100
AcDbLine
10
5.9531298947916671
20
-21.656267806250003
30
0
11
5.953129894791668
21
-5.953129894791668
31
0
0
LINE
5
136
100
AcDbEntity
8
0
100
AcDbLine
10
80.95319156145834
20
-5.953129894791668
30
0
11
96.656329472916681
21
-5.953129894791668
31
0
0
LINE
5
137
100
AcDbEntity
8
0
100
AcDbLine
10
96.656329472916681
20
-5.953129894791668
30
0
11
96.656329472916681
21
-8.7656322072916666
31
0
0
LINE
5
138
100
AcDbEntity
8
0
100
AcDbLine
10
96.656329472916681
20
-8.7656322072916666
30
0
11
112.35946738437502
21
-8.7656322072916666
31
0
0
LINE
5
139
100
AcDbEntity
8
0
100
AcDbLine
10
112.35946738437502
20
-8.7656322072916666
30
0
11
112.35946738437499
21
-5.9531298947916671
31
0
0
LINE
5
140
100
AcDbEntity
8
0
100
AcDbLine
10
112.35946738437499
20
-5.9531298947916671
30
0
11
124.54697740520834
21
-5.953129894791668
31
0
0
LINE
5
141
100
AcDbEntity
8
0
100
AcDbLine
10
124.54697740520834
20
-5.953129894791668
30
0
11
124.54697740520835
21
-8.7656322072916666
31
0
0
LINE
5
142
100
AcDbEntity
8
0
100
AcDbLine
10
124.54697740520835
20
-8.7656322072916666
30
0
11
140.25011531666669
21
-8.7656322072916666
31
0
0
LINE
5
143
100
AcDbEntity
8
0
100
AcDbLine
10
140.25011531666669
20
-8.7656322072916666
30
0
11
140.25011531666667
21
-5.9531298947916671
31
0
0
LINE
5
144
100
AcDbEntity
8
0
100
AcDbLine
10
140.25011531666667
20
-5.9531298947916671
30
0
11
155.95325322812502
21
-5.953129894791668
31
0
0
LINE
5
145
100
AcDbEntity
8
0
100
AcDbLine
10
155.95325322812502
20
-5.953129894791668
30
0
11
155.95325322812502
21
-21.656267806250003
31
0
0
LINE
5
146
100
AcDbEntity
8
0
100
AcDbLine
10
155.95325322812502
20
-21.656267806250003
30
0
11
153.14075091562503
21
-21.656267806250003
31
0
0
LINE
5
147
100
AcDbEntity
8
0
100
AcDbLine
10
153.14075091562503
20
-21.656267806250003
30
0
11
153.14075091562503
21
-37.359405717708341
31
0
0
LINE
5
148
100
AcDbEntity
8
0
100
AcDbLine
10
153.14075091562503
20
-37.359405717708341
30
0
11
155.95325322812502
21
-37.359405717708341
31
0
0
LINE
5
149
100
AcDbEntity
8
0
100
AcDbLine
10
155.95325322812502
20
-37.359405717708341
30
0
11
155.95325322812502
21
-49.546915738541671
31
0
0
LINE
5
150
100
AcDbEntity
8
0
100
AcDbLine
10
155.95325322812502
20
-49.546915738541671
30
0
11
153.14075091562503
21
-49.546915738541671
31
0
0
LINE
5
151
100
AcDbEntity
8
0
100
AcDbLine
10
153.14075091562503
20
-49.546915738541671
30
0
11
153.14075091562503
21
-65.250053650000012
31
0
0
LINE
5
152
100
AcDbEntity
8
0
100
AcDbLine
10
153.14075091562503
20
-65.250053650000012
30
0
11
155.95325322812502
21
-65.250053650000012
31
0
0
LINE
5
153
100
AcDbEntity
8
0
100
AcDbLine
10
155.95325322812502
20
-65.250053650000012
30
0
11
155.95325322812502
21
-80.95319156145834
31
0
0
LINE
5
154
100
AcDbEntity
8
0
100
AcDbLine
10
155.95325322812502
20
-80.95319156145834
30
0
11
140.25011531666667
21
-80.95319156145834
31
0
0
LINE
5
155
100
AcDbEntity
8
0
100
AcDbLine
10
140.25011531666667
20
-80.95319156145834
30
0
11
140.25011531666667
21
-78.140689248958338
31
0
0
LINE
5
156
100
AcDbEntity
8
0
100
AcDbLine
10
140.25011531666667
20
-78.140689248958338
30
0
11
124.54697740520834
21
-78.140689248958338
31
0
0
LINE
5
157
100
AcDbEntity
8
0
100
AcDbLine
10
124.54697740520834
20
-78.140689248958338
30
0
11
124.54697740520835
21
-80.95319156145834
31
0
0
LINE
5
158
100
AcDbEntity
8
0
100
AcDbLine
10
124.54697740520835
20
-80.95319156145834
30
0
11
112.35946738437502
21
-80.95319156145834
31
0
0
LINE
5
159
100
AcDbEntity
8
0
100
AcDbLine
10
112.35946738437502
20
-80.95319156145834
30
0
11
112.35946738437499
21
-78.140689248958338
31
0
0
LINE
5
160
100
AcDbEntity
8
0
100
AcDbLine
10
112.35946738437499
20
-78.140689248958338
30
0
11
96.656329472916667
21
-78.140689248958338
31
0
0
LINE
5
161
100
AcDbEntity
8
0
100
AcDbLine
10
96.656329472916667
20
-78.140689248958338
30
0
11
96.656329472916681
21
-80.95319156145834
31
0
0
LINE
5
162
100
AcDbEntity
8
0
100
AcDbLine
10
96.656329472916681
20
-80.95319156145834
30
0
11
80.95319156145834
21
-80.95319156145834
31
0
0
LINE
5
163
100
AcDbEntity
8
0
100
AcDbLine
10
80.95319156145834
20
-80.95319156145834
30
0
11
80.95319156145834
21
-65.250053650000012
31
0
0
LINE
5
164
100
AcDbEntity
8
0
100
AcDbLine
10
80.95319156145834
20
-65.250053650000012
30
0
11
83.765693873958341
21
-65.250053650000012
31
0
0
LINE
5
165
100
AcDbEntity
8
0
100
AcDbLine
10
83.765693873958341
20
-65.250053650000012
30
0
11
83.765693873958341
21
-49.546915738541685
31
0
0
LINE
5
166
100
AcDbEntity
8
0
100
AcDbLine
10
83.765693873958341
20
-49.546915738541685
30
0
11
80.95319156145834
21
-49.546915738541671
31
0
0
LINE
5
167
100
AcDbEntity
8
0
100
AcDbLine
10
80.95319156145834
20
-49.546915738541671
30
0
11
80.95319156145834
21
-37.359405717708341
31
0
0
LINE
5
168
100
AcDbEntity
8
0
100
AcDbLine
10
80.95319156145834
20
-37.359405717708341
30
0
11
83.765693873958341
21
-37.359405717708341
31
0
0
LINE
5
169
100
AcDbEntity
8
0
100
AcDbLine
10
83.765693873958341
20
-37.359405717708341
30
0
11
83.765693873958341
21
-21.65626780625
31
0
0
LINE
5
170
100
AcDbEntity
8
0
100
AcDbLine
10
83.765693873958341
20
-21.65626780625
30
0
11
80.95319156145834
21
-21.656267806250003
31
0
0
LINE
5
171
100
AcDbEntity
8
0
100
AcDbLine
10
80.95319156145834
20
-21.656267806250003
30
0
11
80.95319156145834
21
-5.953129894791668
31
0
0
LINE
5
172
100
AcDbEntity
8
0
100
AcDbLine
10
158.76575554062501
20
-5.953129894791668
30
0
11
171.65639113958335
21
-5.953129894791668
31
0
0
LINE
5
173
100
AcDbEntity
8
0
100
AcDbLine
10
171.65639113958335
20
-5.953129894791668
30
0
11
171.65639113958335
21
-8.7656322072916666
31
0
0
LINE
5
174
100
AcDbEntity
8
0
100
AcDbLine
10
171.65639113958335
20
-8.7656322072916666
30
0
11
187.35952905104168
21
-8.7656322072916666
31
0
0
LINE
5
175
100
AcDbEntity
8
0
100
AcDbLine
10
187.35952905104168
20
-8.7656322072916666
30
0
11
187.35952905104168
21
-5.9531298947916671
31
0
0
LINE
5
176
100
AcDbEntity
8
0
100
AcDbLine
10
187.35952905104168
20
-5.9531298947916671
30
0
11
199.54703907187502
21
-5.953129894791668
31
0
0
LINE
5
177
100
AcDbEntity
8
0
100
AcDbLine
10
199.54703907187502
20
-5.953129894791668
30
0
11
199.54703907187502
21
-8.7656322072916666
31
0
0
LINE
5
178
100
AcDbEntity
8
0
100
AcDbLine
10
199.54703907187502
20
-8.7656322072916666
30
0
11
215.25017698333332
21
-8.7656322072916666
31
0
0
LINE
5
179
100
AcDbEntity
8
0
100
AcDbLine
10
215.25017698333332
20
-8.7656322072916666
30
0
11
215.25017698333335
21
-5.9531298947916671
31
0
0
LINE
5
180
100
AcDbEntity
8
0
100
AcDbLine
10
215.25017698333335
20
-5.9531298947916671
30
0
11
228.14081258229169
21
-5.953129894791668
31
0
0
LINE
5
181
100
AcDbEntity
8
0
100
AcDbLine
10
228.14081258229169
20
-5.953129894791668
30
0
11
228.14081258229169
21
-21.656267806250003
31
0
0
LINE
5
182
100
AcDbEntity
8
0
100
AcDbLine
10
228.14081258229169
20
-21.656267806250003
30
0
11
230.95331489479167
21
-21.656267806250003
31
0
0
LINE
5
183
100
AcDbEntity
8
0
100
AcDbLine
10
230.95331489479167
20
-21.656267806250003
30
0
11
230.95331489479167
21
-37.359405717708341
31
0
0
LINE
5
184
100
AcDbEntity
8
0
100
AcDbLine
10
230.95331489479167
20
-37.359405717708341
30
0
11
228.14081258229169
21
-37.359405717708341
31
0
0
LINE
5
185
100
AcDbEntity
8
0
100
AcDbLine
10
228.14081258229169
20
-37.359405717708341
30
0
11
228.14081258229169
21
-49.546915738541671
31
0
0
LINE
5
186
100
AcDbEntity
8
0
100
AcDbLine
10
228.14081258229169
20
-49.546915738541671
30
0
11
230.95331489479167
21
-49.546915738541671
31
0
0
LINE
5
187
100
AcDbEntity
8
0
100
AcDbLine
10
230.95331489479167
20
-49.546915738541671
30
0
11
230.95331489479167
21
-65.250053650000012
31
0
0
LINE
5
188
100
AcDbEntity
8
0
100
AcDbLine
10
230.95331489479167
20
-65.250053650000012
30
0
11
228.14081258229169
21
-65.250053650000012
31
0
0
LINE
5
189
100
AcDbEntity
8
0
100
AcDbLine
10
228.14081258229169
20
-65.250053650000012
30
0
11
228.14081258229169
21
-80.95319156145834
31
0
0
LINE
5
190
100
AcDbEntity
8
0
100
AcDbLine
10
228.14081258229169
20
-80.95319156145834
30
0
11
215.25017698333335
21
-80.95319156145834
31
0
0
LINE
5
191
100
AcDbEntity
8
0
100
AcDbLine
10
215.25017698333335
20
-80.95319156145834
30
0
11
215.25017698333335
21
-78.140689248958338
31
0
0
LINE
5
192
100
AcDbEntity
8
0
100
AcDbLine
10
215.25017698333335
20
-78.140689248958338
30
0
11
199.54703907187505
21
-78.140689248958338
31
0
0
LINE
5
193
100
AcDbEntity
8
0
100
AcDbLine
10
199.54703907187505
20
-78.140689248958338
30
0
11
199.54703907187502
21
-80.95319156145834
31
0
0
LINE
5
194
100
AcDbEntity
8
0
100
AcDbLine
10
199.54703907187502
20
-80.95319156145834
30
0
11
187.35952905104168
21
-80.95319156145834
31
0
0
LINE
5
195
100
AcDbEntity
8
0
100
AcDbLine
10
187.35952905104168
20
-80.95319156145834
30
0
11
187.35952905104168
21
-78.140689248958338
31
0
0
LINE
5
196
100
AcDbEntity
8
0
100
AcDbLine
10
187.35952905104168
20
-78.140689248958338
30
0
11
171.65639113958335
21
-78.140689248958338
31
0
0
LINE
5
197
100
AcDbEntity
8
0
100
AcDbLine
10
171.65639113958335
20
-78.140689248958338
30
0
11
171.65639113958335
21
-80.95319156145834
31
0
0
LINE
5
198
100
AcDbEntity
8
0
100
AcDbLine
10
171.65639113958335
20
-80.95319156145834
30
0
11
158.76575554062501
21
-80.95319156145834
31
0
0
LINE
5
199
100
AcDbEntity
8
0
100
AcDbLine
10
158.76575554062501
20
-80.95319156145834
30
0
11
158.76575554062501
21
-65.250053650000012
31
0
0
LINE
5
200
100
AcDbEntity
8
0
100
AcDbLine
10
158.76575554062501
20
-65.250053650000012
30
0
11
155.95325322812502
21
-65.250053650000012
31
0
0
LINE
5
201
100
AcDbEntity
8
0
100
AcDbLine
10
155.95325322812502
20
-65.250053650000012
30
0
11
155.95325322812502
21
-49.546915738541671
31
0
0
LINE
5
202
100
AcDbEntity
8
0
100
AcDbLine
10
155.95325322812502
20
-49.546915738541671
30
0
11
158.76575554062501
21
-49.546915738541671
31
0
0
LINE
5
203
100
AcDbEntity
8
0
100
AcDbLine
10
158.76575554062501
20
-49.546915738541671
30
0
11
158.76575554062501
21
-37.359405717708334
31
0
0
LINE
5
204
100
AcDbEntity
8
0
100
AcDbLine
10
158.76575554062501
20
-37.359405717708334
30
0
11
155.95325322812502
21
-37.359405717708341
31
0
0
LINE
5
205
100
AcDbEntity
8
0
100
AcDbLine
10
155.95325322812502
20
-37.359405717708341
30
0
11
155.95325322812502
21
-21.656267806250003
31
0
0
LINE
5
206
100
AcDbEntity
8
0
100
AcDbLine
10
155.95325322812502
20
-21.656267806250003
30
0
11
158.76575554062501
21
-21.656267806250003
31
0
0
LINE
5
207
100
AcDbEntity
8
0
100
AcDbLine
10
158.76575554062501
20
-21.656267806250003
30
0
11
158.76575554062501
21
-5.953129894791668
31
0
0
LINE
5
208
100
AcDbEntity
8
0
100
AcDbLine
10
158.76575554062501
20
-80.95319156145834
30
0
11
171.65639113958335
21
-80.95319156145834
31
0
0
LINE
5
209
100
AcDbEntity
8
0
100
AcDbLine
10
171.65639113958335
20
-80.95319156145834
30
0
11
171.65639113958335
21
-83.765693873958341
31
0
0
LINE
5
210
100
AcDbEntity
8
0
100
AcDbLine
10
171.65639113958335
20
-83.765693873958341
30
0
11
187.35952905104168
21
-83.765693873958341
31
0
0
LINE
5
211
100
AcDbEntity
8
0
100
AcDbLine
10
187.35952905104168
20
-83.765693873958341
30
0
11
187.35952905104168
21
-80.95319156145834
31
0
0
LINE
5
212
100
AcDbEntity
8
0
100
AcDbLine
10
187.35952905104168
20
-80.95319156145834
30
0
11
199.54703907187502
21
-80.95319156145834
31
0
0
LINE
5
213
100
AcDbEntity
8
0
100
AcDbLine
10
199.54703907187502
20
-80.95319156145834
30
0
11
199.54703907187502
21
-83.765693873958341
31
0
0
LINE
5
214
100
AcDbEntity
8
0
100
AcDbLine
10
199.54703907187502
20
-83.765693873958341
30
0
11
215.25017698333332
21
-83.765693873958341
31
0
0
LINE
5
215
100
AcDbEntity
8
0
100
AcDbLine
10
215.25017698333332
20
-83.765693873958341
30
0
11
215.25017698333335
21
-80.95319156145834
31
0
0
LINE
5
216
100
AcDbEntity
8
0
100
AcDbLine
10
215.25017698333335
20
-80.95319156145834
30
0
11
228.14081258229169
21
-80.95319156145834
31
0
0
LINE
5
217
100
AcDbEntity
8
0
100
AcDbLine
10
228.14081258229169
20
-80.95319156145834
30
0
11
228.14081258229169
21
-96.656329472916681
31
0
0
LINE
5
218
100
AcDbEntity
8
0
100
AcDbLine
10
228.14081258229169
20
-96.656329472916681
30
0
11
230.95331489479167
21
-96.656329472916681
31
0
0
LINE
5
219
100
AcDbEntity
8
0
100
AcDbLine
10
230.95331489479167
20
-96.656329472916681
30
0
11
230.95331489479167
21
-112.35946738437502
31
0
0
LINE
5
220
100
AcDbEntity
8
0
100
AcDbLine
10
230.95331489479167
20
-112.35946738437502
30
0
11
228.14081258229169
21
-112.35946738437499
31
0
0
LINE
5
221
100
AcDbEntity
8
0
100
AcDbLine
10
228.14081258229169
20
-112.35946738437499
30
0
11
228.14081258229169
21
-124.54697740520834
31
0
0
LINE
5
222
100
AcDbEntity
8
0
100
AcDbLine
10
228.14081258229169
20
-124.54697740520834
30
0
11
230.95331489479167
21
-124.54697740520835
31
0
0
LINE
5
223
100
AcDbEntity
8
0
100
AcDbLine
10
230.95331489479167
20
-124.54697740520835
30
0
11
230.95331489479167
21
-140.25011531666669
31
0
0
LINE
5
224
100
AcDbEntity
8
0
100
AcDbLine
10
230.95331489479167
20
-140.25011531666669
30
0
11
228.14081258229169
21
-140.25011531666667
31
0
0
LINE
5
225
100
AcDbEntity
8
0
100
AcDbLine
10
228.14081258229169
20
-140.25011531666667
30
0
11
228.14081258229169
21
-155.95325322812502
31
0
0
LINE
5
226
100
AcDbEntity
8
0
100
AcDbLine
10
228.14081258229169
20
-155.95325322812502
30
0
11
215.25017698333335
21
-155.95325322812502
31
0
0
LINE
5
227
100
AcDbEntity
8
0
100
AcDbLine
10
215.25017698333335
20
-155.95325322812502
30
0
11
215.25017698333335
21
-153.14075091562503
31
0
0
LINE
5
228
100
AcDbEntity
8
0
100
AcDbLine
10
215.25017698333335
20
-153.14075091562503
30
0
11
199.54703907187505
21
-153.14075091562503
31
0
0
LINE
5
229
100
AcDbEntity
8
0
100
AcDbLine
10
199.54703907187505
20
-153.14075091562503
30
0
11
199.54703907187502
21
-155.95325322812502
31
0
0
LINE
5
230
100
AcDbEntity
8
0
100
AcDbLine
10
199.54703907187502
20
-155.95325322812502
30
0
11
187.35952905104168
21
-155.95325322812502
31
0
0
LINE
5
231
100
AcDbEntity
8
0
100
AcDbLine
10
187.35952905104168
20
-155.95325322812502
30
0
11
187.35952905104168
21
-153.14075091562503
31
0
0
LINE
5
232
100
AcDbEntity
8
0
100
AcDbLine
10
187.35952905104168
20
-153.14075091562503
30
0
11
171.65639113958335
21
-153.14075091562503
31
0
0
LINE
5
233
100
AcDbEntity
8
0
100
AcDbLine
10
171.65639113958335
20
-153.14075091562503
30
0
11
171.65639113958335
21
-155.95325322812502
31
0
0
LINE
5
234
100
AcDbEntity
8
0
100
AcDbLine
10
171.65639113958335
20
-155.95325322812502
30
0
11
158.76575554062501
21
-155.95325322812502
31
0
0
LINE
5
235
100
AcDbEntity
8
0
100
AcDbLine
10
158.76575554062501
20
-155.95325322812502
30
0
11
158.76575554062501
21
-140.25011531666667
31
0
0
LINE
5
236
100
AcDbEntity
8
0
100
AcDbLine
10
158.76575554062501
20
-140.25011531666667
30
0
11
155.95325322812502
21
-140.25011531666667
31
0
0
LINE
5
237
100
AcDbEntity
8
0
100
AcDbLine
10
155.95325322812502
20
-140.25011531666667
30
0
11
155.95325322812502
21
-124.54697740520834
31
0
0
LINE
5
238
100
AcDbEntity
8
0
100
AcDbLine
10
155.95325322812502
20
-124.54697740520834
30
0
11
158.76575554062501
21
-124.54697740520835
31
0
0
LINE
5
239
100
AcDbEntity
8
0
100
AcDbLine
10
158.76575554062501
20
-124.54697740520835
30
0
11
158.76575554062501
21
-112.35946738437502
31
0
0
LINE
5
240
100
AcDbEntity
8
0
100
AcDbLine
10
158.76575554062501
20
-112.35946738437502
30
0
11
155.95325322812502
21
-112.35946738437499
31
0
0
LINE
5
241
100
AcDbEntity
8
0
100
AcDbLine
10
155.95325322812502
20
-112.35946738437499
30
0
11
155.95325322812502
21
-96.656329472916667
31
0
0
LINE
5
242
100
AcDbEntity
8
0
100
AcDbLine
10
155.95325322812502
20
-96.656329472916667
30
0
11
158.76575554062501
21
-96.656329472916681
31
0
0
LINE
5
243
100
AcDbEntity
8
0
100
AcDbLine
10
158.76575554062501
20
-96.656329472916681
30
0
11
158.76575554062501
21
-80.95319156145834
31
0
0
LINE
5
244
100
AcDbEntity
8
0
100
AcDbLine
10
8.7656322072916666
20
-83.765693873958341
30
0
11
21.656267806250003
21
-83.765693873958341
31
0
0
LINE
5
245
100
AcDbEntity
8
0
100
AcDbLine
10
21.656267806250003
20
-83.765693873958341
30
0
11
21.656267806250003
21
-80.95319156145834
31
0
0
LINE
5
246
100
AcDbEntity
8
0
100
AcDbLine
10
21.656267806250003
20
-80.95319156145834
30
0
11
37.359405717708334
21
-80.95319156145834
31
0
0
LINE
5
247
100
AcDbEntity
8
0
100
AcDbLine
10
37.359405717708334
20
-80.95319156145834
30
0
11
37.359405717708341
21
-83.765693873958341
31
0
0
LINE
5
248
100
AcDbEntity
8
0
100
AcDbLine
10
37.359405717708341
20
-83.765693873958341
30
0
11
49.546915738541671
21
-83.765693873958341
31
0
0
LINE
5
249
100
AcDbEntity
8
0
100
AcDbLine
10
49.546915738541671
20
-83.765693873958341
30
0
11
49.546915738541671
21
-80.95319156145834
31
0
0
LINE
5
250
100
AcDbEntity
8
0
100
AcDbLine
10
49.546915738541671
20
-80.95319156145834
30
0
11
65.250053650000012
21
-80.95319156145834
31
0
0
LINE
5
251
100
AcDbEntity
8
0
100
AcDbLine
10
65.250053650000012
20
-80.95319156145834
30
0
11
65.250053650000012
21
-83.765693873958341
31
0
0
LINE
5
252
100
AcDbEntity
8
0
100
AcDbLine
10
65.250053650000012
20
-83.765693873958341
30
0
11
78.140689248958338
21
-83.765693873958341
31
0
0
LINE
5
253
100
AcDbEntity
8
0
100
AcDbLine
10
78.140689248958338
20
-83.765693873958341
30
0
11
78.140689248958338
21
-96.656329472916681
31
0
0
LINE
5
254
100
AcDbEntity
8
0
100
AcDbLine
10
78.140689248958338
20
-96.656329472916681
30
0
11
80.95319156145834
21
-96.656329472916681
31
0
0
LINE
5
255
100
AcDbEntity
8
0
100
AcDbLine
10
80.95319156145834
20
-96.656329472916681
30
0
11
80.95319156145834
21
-112.35946738437502
31
0
0
LINE
5
256
100
AcDbEntity
8
0
100
AcDbLine
10
80.95319156145834
20
-112.35946738437502
30
0
11
78.140689248958338
21
-112.35946738437499
31
0
0
LINE
5
257
100
AcDbEntity
8
0
100
AcDbLine
10
78.140689248958338
20
-112.35946738437499
30
0
11
78.140689248958338
21
-124.54697740520834
31
0
0
LINE
5
258
100
AcDbEntity
8
0
100
AcDbLine
10
78.140689248958338
20
-124.54697740520834
30
0
11
80.95319156145834
21
-124.54697740520835
31
0
0
LINE
5
259
100
AcDbEntity
8
0
100
AcDbLine
10
80.95319156145834
20
-124.54697740520835
30
0
11
80.95319156145834
21
-140.25011531666669
31
0
0
LINE
5
260
100
AcDbEntity
8
0
100
AcDbLine
10
80.95319156145834
20
-140.25011531666669
30
0
11
78.140689248958338
21
-140.25011531666667
31
0
0
LINE
5
261
100
AcDbEntity
8
0
100
AcDbLine
10
78.140689248958338
20
-140.25011531666667
30
0
11
78.140689248958338
21
-153.14075091562503
31
0
0
LINE
5
262
100
AcDbEntity
8
0
100
AcDbLine
10
78.140689248958338
20
-153.14075091562503
30
0
11
65.250053650000012
21
-153.14075091562503
31
0
0
LINE
5
263
100
AcDbEntity
8
0
100
AcDbLine
10
65.250053650000012
20
-153.14075091562503
30
0
11
65.250053650000012
21
-155.95325322812502
31
0
0
LINE
5
264
100
AcDbEntity
8
0
100
AcDbLine
10
65.250053650000012
20
-155.95325322812502
30
0
11
49.546915738541685
21
-155.95325322812502
31
0
0
LINE
5
265
100
AcDbEntity
8
0
100
AcDbLine
10
49.546915738541685
20
-155.95325322812502
30
0
11
49.546915738541671
21
-153.14075091562503
31
0
0
LINE
5
266
100
AcDbEntity
8
0
100
AcDbLine
10
49.546915738541671
20
-153.14075091562503
30
0
11
37.359405717708334
21
-153.14075091562503
31
0
0
LINE
5
267
100
AcDbEntity
8
0
100
AcDbLine
10
37.359405717708334
20
-153.14075091562503
30
0
11
37.359405717708341
21
-155.95325322812502
31
0
0
LINE
5
268
100
AcDbEntity
8
0
100
AcDbLine
10
37.359405717708341
20
-155.95325322812502
30
0
11
21.65626780625
21
-155.95325322812502
31
0
0
LINE
5
269
100
AcDbEntity
8
0
100
AcDbLine
10
21.65626780625
20
-155.95325322812502
30
0
11
21.656267806250003
21
-153.14075091562503
31
0
0
LINE
5
270
100
AcDbEntity
8
0
100
AcDbLine
10
21.656267806250003
20
-153.14075091562503
30
0
11
8.7656322072916666
21
-153.14075091562503
31
0
0
LINE
5
271
100
AcDbEntity
8
0
100
AcDbLine
10
8.7656322072916666
20
-153.14075091562503
30
0
11
8.7656322072916666
21
-140.25011531666667
31
0
0
LINE
5
272
100
AcDbEntity
8
0
100
AcDbLine
10
8.7656322072916666
20
-140.25011531666667
30
0
11
5.9531298947916671
21
-140.25011531666667
31
0
0
LINE
5
273
100
AcDbEntity
8
0
100
AcDbLine
10
5.9531298947916671
20
-140.25011531666667
30
0
11
5.953129894791668
21
-124.54697740520834
31
0
0
LINE
5
274
100
AcDbEntity
8
0
100
AcDbLine
10
5.953129894791668
20
-124.54697740520834
30
0
11
8.7656322072916666
21
-124.54697740520835
31
0
0
LINE
5
275
100
AcDbEntity
8
0
100
AcDbLine
10
8.7656322072916666
20
-124.54697740520835
30
0
11
8.7656322072916666
21
-112.35946738437502
31
0
0
LINE
5
276
100
AcDbEntity
8
0
100
AcDbLine
10
8.7656322072916666
20
-112.35946738437502
30
0
11
5.9531298947916671
21
-112.35946738437499
31
0
0
LINE
5
277
100
AcDbEntity
8
0
100
AcDbLine
10
5.9531298947916671
20
-112.35946738437499
30
0
11
5.953129894791668
21
-96.656329472916667
31
0
0
LINE
5
278
100
AcDbEntity
8
0
100
AcDbLine
10
5.953129894791668
20
-96.656329472916667
30
0
11
8.7656322072916666
21
-96.656329472916681
31
0
0
LINE
5
279
100
AcDbEntity
8
0
100
AcDbLine
10
8.7656322072916666
20
-96.656329472916681
30
0
11
8.7656322072916666
21
-83.765693873958341
31
0
0
LINE
5
280
100
AcDbEntity
8
0
100
AcDbLine
10
83.765693873958341
20
-83.765693873958341
30
0
11
96.656329472916681
21
-83.765693873958341
31
0
0
LINE
5
281
100
AcDbEntity
8
0
100
AcDbLine
10
96.656329472916681
20
-83.765693873958341
30
0
11
96.656329472916681
21
-80.95319156145834
31
0
0
LINE
5
282
100
AcDbEntity
8
0
100
AcDbLine
10
96.656329472916681
20
-80.95319156145834
30
0
11
112.35946738437502
21
-80.95319156145834
31
0
0
LINE
5
283
100
AcDbEntity
8
0
100
AcDbLine
10
112.35946738437502
20
-80.95319156145834
30
0
11
112.35946738437499
21
-83.765693873958341
31
0
0
LINE
5
284
100
AcDbEntity
8
0
100
AcDbLine
10
112.35946738437499
20
-83.765693873958341
30
0
11
124.54697740520834
21
-83.765693873958341
31
0
0
LINE
5
285
100
AcDbEntity
8
0
100
AcDbLine
10
124.54697740520834
20
-83.765693873958341
30
0
11
124.54697740520835
21
-80.95319156145834
31
0
0
LINE
5
286
100
AcDbEntity
8
0
100
AcDbLine
10
124.54697740520835
20
-80.95319156145834
30
0
11
140.25011531666667
21
-80.95319156145834
31
0
0
LINE
5
287
100
AcDbEntity
8
0
100
AcDbLine
10
140.25011531666667
20
-80.95319156145834
30
0
11
140.25011531666667
21
-83.765693873958341
31
0
0
LINE
5
288
100
AcDbEntity
8
0
100
AcDbLine
10
140.25011531666667
20
-83.765693873958341
30
0
11
153.14075091562503
21
-83.765693873958341
31
0
0
LINE
5
289
100
AcDbEntity
8
0
100
AcDbLine
10
153.14075091562503
20
-83.765693873958341
30
0
11
153.14075091562503
21
-96.656329472916681
31
0
0
LINE
5
290
100
AcDbEntity
8
0
100
AcDbLine
10
153.14075091562503
20
-96.656329472916681
30
0
11
155.95325322812502
21
-96.656329472916667
31
0
0
LINE
5
291
100
AcDbEntity
8
0
100
AcDbLine
10
155.95325322812502
20
-96.656329472916667
30
0
11
155.95325322812502
21
-112.35946738437499
31
0
0
LINE
5
292
100
AcDbEntity
8
0
100
AcDbLine
10
155.95325322812502
20
-112.35946738437499
30
0
11
153.14075091562503
21
-112.35946738437499
31
0
0
LINE
5
293
100
AcDbEntity
8
0
100
AcDbLine
10
153.14075091562503
20
-112.35946738437499
30
0
11
153.14075091562503
21
-124.54697740520834
31
0
0
LINE
5
294
100
AcDbEntity
8
0
100
AcDbLine
10
153.14075091562503
20
-124.54697740520834
30
0
11
155.95325322812502
21
-124.54697740520834
31
0
0
LINE
5
295
100
AcDbEntity
8
0
100
AcDbLine
10
155.95325322812502
20
-124.54697740520834
30
0
11
155.95325322812502
21
-140.25011531666667
31
0
0
LINE
5
296
100
AcDbEntity
8
0
100
AcDbLine
10
155.95325322812502
20
-140.25011531666667
30
0
11
153.14075091562503
21
-140.25011531666667
31
0
0
LINE
5
297
100
AcDbEntity
8
0
100
AcDbLine
10
153.14075091562503
20
-140.25011531666667
30
0
11
153.14075091562503
21
-153.14075091562503
31
0
0
LINE
5
298
100
AcDbEntity
8
0
100
AcDbLine
10
153.14075091562503
20
-153.14075091562503
30
0
11
140.25011531666667
21
-153.14075091562503
31
0
0
LINE
5
299
100
AcDbEntity
8
0
100
AcDbLine
10
140.25011531666667
20
-153.14075091562503
30
0
11
140.25011531666667
21
-155.95325322812502
31
0
0
LINE
5
300
100
AcDbEntity
8
0
100
AcDbLine
10
140.25011531666667
20
-155.95325322812502
30
0
11
124.54697740520834
21
-155.95325322812502
31
0
0
LINE
5
301
100
AcDbEntity
8
0
100
AcDbLine
10
124.54697740520834
20
-155.95325322812502
30
0
11
124.54697740520835
21
-153.14075091562503
31
0
0
LINE
5
302
100
AcDbEntity
8
0
100
AcDbLine
10
124.54697740520835
20
-153.14075091562503
30
0
11
112.35946738437502
21
-153.14075091562503
31
0
0
LINE
5
303
100
AcDbEntity
8
0
100
AcDbLine
10
112.35946738437502
20
-153.14075091562503
30
0
11
112.35946738437499
21
-155.95325322812502
31
0
0
LINE
5
304
100
AcDbEntity
8
0
100
AcDbLine
10
112.35946738437499
20
-155.95325322812502
30
0
11
96.656329472916667
21
-155.95325322812502
31
0
0
LINE
5
305
100
AcDbEntity
8
0
100
AcDbLine
10
96.656329472916667
20
-155.95325322812502
30
0
11
96.656329472916681
21
-153.14075091562503
31
0
0
LINE
5
306
100
AcDbEntity
8
0
100
AcDbLine
10
96.656329472916681
20
-153.14075091562503
30
0
11
83.765693873958341
21
-153.14075091562503
31
0
0
LINE
5
307
100
AcDbEntity
8
0
100
AcDbLine
10
83.765693873958341
20
-153.14075091562503
30
0
11
83.765693873958341
21
-140.25011531666667
31
0
0
LINE
5
308
100
AcDbEntity
8
0
100
AcDbLine
10
83.765693873958341
20
-140.25011531666667
30
0
11
80.95319156145834
21
-140.25011531666669
31
0
0
LINE
5
309
100
AcDbEntity
8
0
100
AcDbLine
10
80.95319156145834
20
-140.25011531666669
30
0
11
80.95319156145834
21
-124.54697740520835
31
0
0
LINE
5
310
100
AcDbEntity
8
0
100
AcDbLine
10
80.95319156145834
20
-124.54697740520835
30
0
11
83.765693873958341
21
-124.54697740520835
31
0
0
LINE
5
311
100
AcDbEntity
8
0
100
AcDbLine
10
83.765693873958341
20
-124.54697740520835
30
0
11
83.765693873958341
21
-112.35946738437502
31
0
0
LINE
5
312
100
AcDbEntity
8
0
100
AcDbLine
10
83.765693873958341
20
-112.35946738437502
30
0
11
80.95319156145834
21
-112.35946738437502
31
0
0
LINE
5
313
100
AcDbEntity
8
0
100
AcDbLine
10
80.95319156145834
20
-112.35946738437502
30
0
11
80.95319156145834
21
-96.656329472916681
31
0
0
LINE
5
314
100
AcDbEntity
8
0
100
AcDbLine
10
80.95319156145834
20
-96.656329472916681
30
0
11
83.765693873958341
21
-96.656329472916681
31
0
0
LINE
5
315
100
AcDbEntity
8
0
100
AcDbLine
10
83.765693873958341
20
-96.656329472916681
30
0
11
83.765693873958341
21
-83.765693873958341
31
0
0
ELLIPSE
5
316
100
AcDbEntity
8
0
100
AcDbEllipse
10
100.80974265187007
20
-43.043434861738646
30
0
11
9.1902573481299399
21
0
31
0.0
40
0.3517024828943508
41
0
42
6.2831853071795862
0
LINE
5
317
100
AcDbEntity
8
0
100
AcDbLine
10
91.61948530374012
20
-43.043434861738646
30
0
11
110
21
-43.043434861738646
31
0
0
LINE
5
318
100
AcDbEntity
8
0
100
AcDbLine
10
100.80974265187007
20
-46.275671189514
30
0
11
100.80974265187007
21
-39.811198533963299
31
0
0
ELLIPSE
5
319
100
AcDbEntity
8
0
100
AcDbEllipse
10
105.89423304765576
20
-55.318480533000184
30
0
11
6.4984932917121778
21
6.4984932917121796
31
0.0
40
0.3517024828943508
41
0
42
6.2831853071795862
0
ELLIPSE
5
320
100
AcDbEntity
8
0
100
AcDbEllipse
10
118.16927871891728
20
-60.402970928785891
30
0
11
-2.0406470620248788e-15
21
9.1902573481299417
31
0.0
40
0.35170248289435074
41
0
42
6.2831853071795862
0
ELLIPSE
5
321
100
AcDbEntity
8
0
100
AcDbEllipse
10
130.44432439017885
20
-55.318480533000205
30
0
11
-6.4984932917121787
21
6.4984932917121805
31
0.0
40
0.3517024828943508
41
0
42
6.2831853071795862
0
ELLIPSE
5
322
100
AcDbEntity
8
0
100
AcDbEllipse
10
135.5288147859645
20
-43.04343486173866
30
0
11
-9.1902573481299399
21
1.1254819244727778e-15
31
0.0
40
0.3517024828943508
41
0
42
6.2831853071795862
0
ELLIPSE
5
323
100
AcDbEntity
8
0
100
AcDbEllipse
10
130.44432439017879
20
-30.76838919047713
30
0
11
-6.4984932917121787
21
-6.4984932917121787
31
0.0
40
0.3517024828943508
41
0
42
6.2831853071795862
0
ELLIPSE
5
324
100
AcDbEntity
8
0
100
AcDbEllipse
10
118.16927871891728
20
-25.683898794691427
30
0
11
-2.0406470620248784e-15
21
-9.1902573481299399
31
0.0
40
0.3517024828943508
41
0
42
6.2831853071795862
0
ELLIPSE
5
325
100
AcDbEntity
8
0
100
AcDbEllipse
10
105.89423304765573
20
-30.768389190477112
30
0
11
6.498493291712176
21
-6.4984932917121805
31
0.0
40
0.3517024828943508
41
0
42
6.2831853071795862
0
SPLINE
5
326
100
AcDbEntity
8
0
100
AcDbSpline
70
1064
71
5
72
51
73
45
74
0
42
0.000000001
43
0.0000000001
44
0.0000000001
40
0
40
0
40
0
40
0
40
0
40
0
40
0.025000000000000001
40
0.050000000000000003
40
0.075000000000000011
40
0.10000000000000001
40
0.125
40
0.14999999999999999
40
0.17499999999999999
40
0.19999999999999998
40
0.22499999999999998
40
0.24999999999999997
40
0.27499999999999997
40
0.29999999999999999
40
0.32500000000000001
40
0.35000000000000003
40
0.37500000000000006
40
0.40000000000000008
40
0.4250000000000001
40
0.45000000000000012
40
0.47500000000000014
40
0.50000000000000011
40
0.52500000000000013
40
0.55000000000000016
40
0.57500000000000018
40
0.6000000000000002
40
0.62500000000000022
40
0.65000000000000024
40
0.67500000000000027
40
0.70000000000000029
40
0.72500000000000031
40
0.75000000000000033
40
0.77500000000000036
40
0.80000000000000038
40
0.8250000000000004
40
0.85000000000000042
40
0.87500000000000044
40
0.90000000000000047
40
0.92500000000000049
40
0.95000000000000051
40
0.97500000000000053
40
1
40
1
40
1
40
1
40
1
40
1
10
178.50000265985727
20
-46.000000685453415
30
0
10
178.46665678789441
20
-45.974729018248723
30
0
10
178.4052656209152
20
-45.91843300168825
30
0
10
178.32907989468507
20
-45.816732224656079
30
0
10
178.25933948492934
20
-45.646571309176657
30
0
10
178.22468583207205
20
-45.377480567606924
30
0
10
178.24070329252933
20
-45.05577852387426
30
0
10
178.30321541458153
20
-44.689707936837301
30
0
10
178.4060561846191
20
-44.291385238995097
30
0
10
178.54232327412183
20
-43.874535927888907
30
0
10
178.70539729245814
20
-43.452643220347554
30
0
10
178.88996114644783
20
-43.037127411293184
30
0
10
179.0932553186114
20
-42.635012796989201
30
0
10
179.31516131259642
20
-42.249069553586878
30
0
10
179.5575093577811
20
-41.879567405681904
30
0
10
179.82362902661251
20
-41.525560928427709
30
0
10
180.11780120447338
20
-41.186294475954959
30
0
10
180.44476489967752
20
-40.862711216736642
30
0
10
180.80917101692444
20
-40.558427884130488
30
0
10
181.21490851190111
20
-40.278862621311127
30
0
10
181.66446560584302
20
-40.030689264061294
30
0
10
182.15822806620082
20
-39.821162064052793
30
0
10
182.69388797459078
20
-39.657508905753559
30
0
10
183.26555924531053
20
-39.546264164196359
30
0
10
183.86383801495867
20
-39.49272826526073
30
0
10
184.47717879435072
20
-39.500594384004607
30
0
10
185.09295135102786
20
-39.571514939642995
30
0
10
185.69859130999774
20
-39.704703411786099
30
0
10
186.28277393118734
20
-39.89645301119338
30
0
10
186.83643041547325
20
-40.139799989223789
30
0
10
187.35422296262317
20
-40.423792041980406
30
0
10
187.83408181955653
20
-40.734358128305431
30
0
10
188.27545019473814
20
-41.056246575603161
30
0
10
188.67796498691834
20
-41.374596122136928
30
0
10
189.03987735071198
20
-41.676742813682168
30
0
10
189.35678105083537
20
-41.953734610018799
30
0
10
189.61971843077552
20
-42.202471318410886
30
0
10
189.81527388830807
20
-42.425866276820472
30
0
10
189.92890125500818
20
-42.629839804125595
30
0
10
189.94721111177347
20
-42.821275736968332
30
0
10
189.861305222075
20
-43.005145784342275
30
0
10
189.70604636268911
20
-43.14804770544395
30
0
10
189.54039831243966
20
-43.253243859883327
30
0
10
189.40812452883816
20
-43.322492232621812
30
0
10
189.33652694512381
20
-43.356896002202106
30
0
0
SPLINE
5
327
100
AcDbEntity
8
0
100
AcDbSpline
70
1064
71
5
72
51
73
45
74
0
42
0.000000001
43
0.0000000001
44
0.0000000001
40
0
40
0
40
0
40
0
40
0
40
0
40
0.025000000000000001
40
0.050000000000000003
40
0.075000000000000011
40
0.10000000000000001
40
0.125
40
0.14999999999999999
40
0.17499999999999999
40
0.19999999999999998
40
0.22499999999999998
40
0.24999999999999997
40
0.27499999999999997
40
0.29999999999999999
40
0.32500000000000001
40
0.35000000000000003
40
0.37500000000000006
40
0.40000000000000008
40
0.4250000000000001
40
0.45000000000000012
40
0.47500000000000014
40
0.50000000000000011
40
0.52500000000000013
40
0.55000000000000016
40
0.57500000000000018
40
0.6000000000000002
40
0.62500000000000022
40
0.65000000000000024
40
0.67500000000000027
40
0.70000000000000029
40
0.72500000000000031
40
0.75000000000000033
40
0.77500000000000036
40
0.80000000000000038
40
0.8250000000000004
40
0.85000000000000042
40
0.87500000000000044
40
0.90000000000000047
40
0.92500000000000049
40
0.95000000000000051
40
0.97500000000000053
40
1
40
1
40
1
40
1
40
1
40
1
10
189.33652694512381
20
-43.356896002202106
30
0
10
189.30343781826406
20
-43.325656430705095
30
0
10
189.23419556591159
20
-43.266409204390712
30
0
10
189.1211399283743
20
-43.18723444904424
30
0
10
188.95199812209921
20
-43.101077126029963
30
0
10
188.71032272616327
20
-43.025241088404584
30
0
10
188.43989239390675
20
-42.979547555301906
30
0
10
188.14376615080474
20
-42.960499422571779
30
0
10
187.8273545686574
20
-42.961901142206862
30
0
10
187.49822613082884
20
-42.975183404808099
30
0
10
187.16465856776756
20
-42.991323854480036
30
0
10
186.83451868676229
20
-43.002349571288576
30
0
10
186.51399284813988
20
-43.0030372526451
30
0
10
186.20641332420732
20
-42.992478681338341
30
0
10
185.91092997461132
20
-42.975883725186122
30
0
10
185.62375022202403
20
-42.962332203920326
30
0
10
185.33948363565142
20
-42.962366138212225
30
0
10
185.05247312877094
20
-42.985577376926962
30
0
10
184.75805298185048
20
-43.038357608260668
30
0
10
184.45403911182186
20
-43.121141637903619
30
0
10
184.14038444105361
20
-43.229580881090683
30
0
10
183.81848256024412
20
-43.356465628223965
30
0
10
183.49059015904334
20
-43.493399542975936
30
0
10
183.15922809356576
20
-43.632508284873033
30
0
10
182.82653808428196
20
-43.768278650526256
30
0
10
182.49382737179803
20
-43.898908061719546
30
0
10
182.16205110739904
20
-44.025247876334781
30
0
10
181.83215504282785
20
-44.150089795983227
30
0
10
181.50549144869817
20
-44.277321860409558
30
0
10
181.18416080706237
20
-44.411160089619777
30
0
10
180.87149426676365
20
-44.555316155883574
30
0
10
180.57214001912189
20
-44.712297516425735
30
0
10
180.2910254190331
20
-44.883025065402009
30
0
10
180.03254545140311
20
-45.066408686667828
30
0
10
179.79961442620206
20
-45.258886948111325
30
0
10
179.59287306947445
20
-45.454071640992382
30
0
10
179.40954898019993
20
-45.642073104664377
30
0
10
179.24433813040366
20
-45.810800865426827
30
0
10
179.09092007082481
20
-45.94792250315539
30
0
10
178.94315170842435
20
-46.042444945299636
30
0
10
178.79663215676015
20
-46.086820612899587
30
0
10
178.67875582473971
20
-46.079436481009864
30
0
10
178.58964913398927
20
-46.049279895103787
30
0
10
178.52993629732288
20
-46.018248400201458
30
0
10
178.50000265985727
20
-46.000000685453415
30
0
0
SPLINE
5
328
100
AcDbEntity
8
0
100
AcDbSpline
70
1064
71
5
72
51
73
45
74
0
42
0.000000001
43
0.0000000001
44
0.0000000001
40
0
40
0
40
0
40
0
40
0
40
0
40
0.025000000000000001
40
0.050000000000000003
40
0.075000000000000011
40
0.10000000000000001
40
0.125
40
0.14999999999999999
40
0.17499999999999999
40
0.19999999999999998
40
0.22499999999999998
40
0.24999999999999997
40
0.27499999999999997
40
0.29999999999999999
40
0.32500000000000001
40
0.35000000000000003
40
0.37500000000000006
40
0.40000000000000008
40
0.4250000000000001
40
0.45000000000000012
40
0.47500000000000014
40
0.50000000000000011
40
0.52500000000000013
40
0.55000000000000016
40
0.57500000000000018
40
0.6000000000000002
40
0.62500000000000022
40
0.65000000000000024
40
0.67500000000000027
40
0.70000000000000029
40
0.72500000000000031
40
0.75000000000000033
40
0.77500000000000036
40
0.80000000000000038
40
0.8250000000000004
40
0.85000000000000042
40
0.87500000000000044
40
0.90000000000000047
40
0.92500000000000049
40
0.95000000000000051
40
0.97500000000000053
40
1
40
1
40
1
40
1
40
1
40
1
10
193.00000287592411
20
-41.000000610947609
30
0
10
192.92870997197994
20
-40.86422461832133
30
0
10
192.79009942263795
20
-40.583370848348636
30
0
10
192.59411340113186
20
-40.134187400194712
30
0
10
192.35664763045688
20
-39.479391498556097
30
0
10
192.1035312552992
20
-38.57036656372911
30
0
10
191.90514572140191
20
-37.578810020403829
30
0
10
191.78460011510998
20
-36.521960810025973
30
0
10
191.77565372098076
20
-35.42604578186198
30
0
10
191.91234861451349
20
-34.320411888434649
30
0
10
192.22140845928695
20
-33.233377624980506
30
0
10
192.71227918121895
20
-32.186717080040005
30
0
10
193.3717538712506
20
-31.192739904693685
30
0
10
194.17387292228423
20
-30.25982593134184
30
0
10
195.08786878182161
20
-29.396943559148223
30
0
10
196.08594523142318
20
-28.617963345885585
30
0
10
197.15331072930422
20
-27.947533975014245
30
0
10
198.28727048867768
20
-27.419623087501733
30
0
10
199.48913664592692
20
-27.071250829517037
30
0
10
200.75812815634805
20
-26.937568685800635
30
0
10
202.08486265662964
20
-27.046610242622652
30
0
10
203.44389405378439
20
-27.413514574653519
30
0
10
204.7961995291638
20
-28.040457593264239
30
0
10
206.09370033974903
20
-28.917766528997038
30
0
10
207.28305168661021
20
-30.024512230828904
30
0
10
208.30966735787791
20
-31.329347741329432
30
0
10
209.12175376894419
20
-32.79095344696163
30
0
10
209.67399850777463
20
-34.359311623754998
30
0
10
209.93018948460337
20
-35.97933409090848
30
0
10
209.86598105763466
20
-37.593992245211531
30
0
10
209.47187531452161
20
-39.147726066008993
30
0
10
208.75571847613284
20
-40.58950783541021
30
0
10
207.7466597137776
20
-41.87662711380802
30
0
10
206.49449487872198
20
-42.976249117715462
30
0
10
205.0616850449029
20
-43.863519865491867
30
0
10
203.51726914218008
20
-44.520530128179693
30
0
10
201.92984558048511
20
-44.934967354976038
30
0
10
200.36146696546311
20
-45.098967571181404
30
0
10
198.85991012195163
20
-45.007858392883875
30
0
10
197.45591007173257
20
-44.659196234486309
30
0
10
196.1678005627621
20
-44.052183318131256
30
0
10
195.23703102801989
20
-43.360051508521408
30
0
10
194.5962568488813
20
-42.725052550172919
30
0
10
194.19451412254858
20
-42.250261071352739
30
0
10
194.00000289082527
20
-42.00000062584877
30
0
0
LINE
5
329
100
AcDbEntity
8
0
100
AcDbLine
10
193.00000287592411
20
-41.000000610947609
30
0
11
198.00000295042992
21
-38.000000566244125
31
0
0
LINE
5
330
100
AcDbEntity
8
0
100
AcDbLine
10
194.00000289082527
20
-42.00000062584877
30
0
11
199.00000296533108
21
-39.000000581145287
31
0
0
SPLINE
5
331
100
AcDbEntity
8
0
100
AcDbSpline
70
1064
71
5
72
41
73
35
74
0
42
0.000000001
43
0.0000000001
44
0.0000000001
40
0
40
0
40
0
40
0
40
0
40
0
40
0.033333333333333333
40
0.066666666666666666
40
0.10000000000000001
40
0.13333333333333333
40
0.16666666666666666
40
0.19999999999999998
40
0.23333333333333331
40
0.26666666666666666
40
0.29999999999999999
40
0.33333333333333331
40
0.36666666666666664
40
0.39999999999999997
40
0.43333333333333329
40
0.46666666666666662
40
0.49999999999999994
40
0.53333333333333333
40
0.56666666666666665
40
0.59999999999999998
40
0.6333333333333333
40
0.66666666666666663
40
0.69999999999999996
40
0.73333333333333328
40
0.76666666666666661
40
0.79999999999999993
40
0.83333333333333326
40
0.86666666666666659
40
0.89999999999999991
40
0.93333333333333324
40
0.96666666666666656
40
1
40
1
40
1
40
1
40
1
40
1
10
198.00000295042992
20
-38.000000566244125
30
0
10
197.89758795269813
20
-37.934158852379589
30
0
10
197.7057112648061
20
-37.795485371631457
30
0
10
197.45675594358406
20
-37.566504247485156
30
0
10
197.20267749841528
20
-37.21918474543407
30
0
10
197.01568326020515
20
-36.716855533997084
30
0
10
196.96040071293203
20
-36.152766979906758
30
0
10
197.03789653987155
20
-35.540170635389657
30
0
10
197.24908450616607
20
-34.902303192821101
30
0
10
197.59328530267769
20
-34.270441162583033
30
0
10
198.06644071187083
20
-33.680498432514888
30
0
10
198.6592733100787
20
-33.170121133396684
30
0
10
199.35567718915388
20
-32.775656426432683
30
0
10
200.13026089709044
20
-32.528987380477595
30
0
10
200.94892251496489
20
-32.45506111043813
30
0
10
201.77214497522425
20
-32.570009097180758
30
0
10
202.55747245686121
20
-32.879089870609654
30
0
10
203.26230421316592
20
-33.374409054220017
30
0
10
203.84652001357119
20
-34.033008881660599
30
0
10
204.27528515336314
20
-34.813568586968245
30
0
10
204.52122588176312
20
-35.661867459620844
30
0
10
204.56652624850199
20
-36.518295407723748
30
0
10
204.40514842070112
20
-37.324590400603284
30
0
10
204.04513874145943
20
-38.03089864795615
30
0
10
203.51102371073924
20
-38.602730839198117
30
0
10
202.84638905353316
20
-39.028139835594871
30
0
10
202.10670803033122
20
-39.311896307700096
30
0
10
201.35238842988346
20
-39.469843579683086
30
0
10
200.6414768699525
20
-39.523109953563825
30
0
10
200.02326775384009
20
-39.492916927778097
30
0
10
199.52959058614906
20
-39.394042390965083
30
0
10
199.24595212534933
20
-39.265769709822521
30
0
10
199.09788684164144
20
-39.143146825400819
30
0
10
199.02785132290995
20
-39.049670351080728
30
0
10
199.00000296533108
20
-39.000000581145287
30
0
0
LINE
5
332
100
AcDbEntity
8
0
100
AcDbLine
10
165.89670827391552
20
-43.376963828615246
30
0
11
170.06713757858063
21
-43.376963824516253
31
0
0
LINE
5
333
100
AcDbEntity
8
0
100
AcDbLine
10
165.89670827391552
20
-45.52722608381611
30
0
11
170.34796996722775
21
-45.527225671369692
31
0
0
LINE
5
334
100
AcDbEntity
8
0
100
AcDbLine
10
172.30502634127043
20
-60.828400424676602
30
0
11
176.00000262260437
21
-58.000000864267349
31
0
0
LINE
5
335
100
AcDbEntity
8
0
100
AcDbLine
10
174.1525144819374
20
-62.799220813577548
30
0
11
177.6458524189492
21
-60.125169685367624
31
0
0
LINE
5
336
100
AcDbEntity
8
0
100
AcDbLine
10
188.25414573606238
20
-69.972502179658619
30
0
11
190.00000283122063
21
-66.000000983476639
31
0
0
LINE
5
337
100
AcDbEntity
8
0
100
AcDbLine
10
191.14691868433906
20
-70.319911218527608
30
0
11
193.00000287592411
21
-66.000000983476639
31
0
0
LINE
5
338
100
AcDbEntity
8
0
100
AcDbLine
10
213.83237525771349
20
-60.465990653811247
30
0
11
210.72171898061129
21
-58.000000864394003
31
0
0
LINE
5
339
100
AcDbEntity
8
0
100
AcDbLine
10
215.62727130844303
20
-58.000000864267349
30
0
11
212.4867379482852
21
-55.510325915674429
31
0
0
LINE
5
340
100
AcDbEntity
8
0
100
AcDbLine
10
216.86102809079728
20
-40.531307056442913
30
0
11
219.79077381618765
21
-40.531307056285698
31
0
0
LINE
5
341
100
AcDbEntity
8
0
100
AcDbLine
10
216.34884759152104
20
-37.997425982619887
30
0
11
219.4020734204442
21
-37.997424973675216
31
0
0
LINE
5
342
100
AcDbEntity
8
0
100
AcDbLine
10
211.00000314414501
20
-28.000000417232513
30
0
11
213.83237525771349
21
-26.247801350592983
31
0
0
LINE
5
343
100
AcDbEntity
8
0
100
AcDbLine
10
209.3421422229041
20
-26.247801350988563
30
0
11
212.2321782681199
21
-24.459929468418864
31
0
0
LINE
5
344
100
AcDbEntity
8
0
100
AcDbLine
10
197.00000293552876
20
-20.000000298023224
30
0
11
197.00000293552876
21
-16.645925890952327
31
0
0
LINE
5
345
100
AcDbEntity
8
0
100
AcDbLine
10
194.0593113001791
20
-19.728550988847068
30
0
11
194.05931130017936
21
-16.35991081195202
31
0
0
LINE
5
346
100
AcDbEntity
8
0
100
AcDbLine
10
181.17725506130546
20
-23.426945606511978
30
0
11
178.15943657731674
21
-20.722172485069695
31
0
0
LINE
5
347
100
AcDbEntity
8
0
100
AcDbLine
10
179.00000266730785
20
-25.00000037252903
30
0
11
175.98594031616474
21
-22.298593790978632
31
0
0
ARC
5
348
100
AcDbEntity
8
0
100
AcDbCircle
10
192.91780810691915
20
-43.356896002202106
30
0
40
27.021107284913512
100
AcDbArc
50
87.578826668068842
51
123.10529499335371
0
SPLINE
5
349
100
AcDbEntity
8
0
100
AcDbSpline
70
1064
71
5
72
21
73
15
74
0
42
0.000000001
43
0.0000000001
44
0.0000000001
40
0.23674562621313036
40
0.23674562621313036
40
0.23674562621313036
40
0.23674562621313036
40
0.23674562621313036
40
0.23674562621313036
40
0.23750000000000007
40
0.25000000000000006
40
0.26250000000000007
40
0.27500000000000008
40
0.28750000000000009
40
0.3000000000000001
40
0.31250000000000011
40
0.32500000000000012
40
0.33750000000000013
40
0.3454924146708882
40
0.3454924146708882
40
0.3454924146708882
40
0.3454924146708882
40
0.3454924146708882
40
0.3454924146708882
10
181.17725506130546
20
-23.426945606511978
30
0
10
181.19191501912917
20
-23.417328913205875
30
0
10
181.44951086944036
20
-23.24864486563574
30
0
10
181.95076023511746
20
-22.930476479947913
30
0
10
182.69942782625901
20
-22.484854269566419
30
0
10
183.71057416761911
20
-21.943917666895171
30
0
10
185.01023489928687
20
-21.353785615448416
30
0
10
186.38841856819639
20
-20.838195288826849
30
0
10
187.86188474784919
20
-20.401405843049684
30
0
10
189.43681678024393
20
-20.054318858953224
30
0
10
190.99029700934346
20
-19.829680320787531
30
0
10
192.2684854938575
20
-19.734924276382948
30
0
10
193.22218797274314
20
-19.71483589020767
30
0
10
193.82350869071058
20
-19.722449468846328
30
0
10
194.05931130017916
20
-19.728550988847068
30
0
0
ARC
5
350
100
AcDbEntity
8
0
100
AcDbCircle
10
192.91780810691915
20
-43.356896002202106
30
0
40
27.021107284913505
100
AcDbArc
50
128.80092229303406
51
180.04255198911903
0
SPLINE
5
351
100
AcDbEntity
8
0
100
AcDbSpline
70
1064
71
5
72
14
73
8
74
0
42
0.000000001
43
0.0000000001
44
0.0000000001
40
0
40
0
40
0
40
0
40
0
40
0
40
0.012500000000000001
40
0.025000000000000001
40
0.027285837774522211
40
0.027285837774522211
40
0.027285837774522211
40
0.027285837774522211
40
0.027285837774522211
40
0.027285837774522211
10
171.00000254809856
20
-48.000000715255737
30
0
10
170.92598297662749
20
-47.791586642500256
30
0
10
170.78446219259476
20
-47.366429283195508
30
0
10
170.64423018795068
20
-46.884216632152544
30
0
10
170.51953251238032
20
-46.382155309930738
30
0
10
170.41058968286472
20
-45.860406817254798
30
0
10
170.35625693485974
20
-45.571955712943854
30
0
10
170.34796996722773
20
-45.527225671369692
30
0
0
SPLINE
5
352
100
AcDbEntity
8
0
100
AcDbSpline
70
1064
71
5
72
26
73
20
74
0
42
0.000000001
43
0.0000000001
44
0.0000000001
40
0
40
0
40
0
40
0
40
0
40
0
40
0.066666666666666666
40
0.13333333333333333
40
0.20000000000000001
40
0.26666666666666666
40
0.33333333333333331
40
0.39999999999999997
40
0.46666666666666662
40
0.53333333333333333
40
0.59999999999999998
40
0.66666666666666663
40
0.73333333333333328
40
0.79999999999999993
40
0.86666666666666659
40
0.93333333333333324
40
1
40
1
40
1
40
1
40
1
40
1
10
170.06713757858063
20
-43.376963824516253
30
0
10
170.05932967661752
20
-43.278720254925112
30
0
10
170.04370046760553
20
-43.090914488105064
30
0
10
170.0202196118708
20
-42.835154160806582
30
0
10
169.99309688544457
20
-42.501118019195118
30
0
10
169.99070781352407
20
-41.885034766946667
30
0
10
170.05043379981404
20
-40.910282315832205
30
0
10
170.20285792185194
20
-39.559454933102593
30
0
10
170.47680935512292
20
-37.899575279693451
30
0
10
170.89666879865655
20
-36.054642394509713
30
0
10
171.47932190530213
20
-34.168046550010104
30
0
10
172.2310995747236
20
-32.3733496990966
30
0
10
173.14259884385197
20
-30.756112475628406
30
0
10
174.18765135753443
20
-29.337085846740042
30
0
10
175.33156393440197
20
-28.097423711876495
30
0
10
176.53672047718095
20
-26.993353417689178
30
0
10
177.52232789366172
20
-26.177515419043218
30
0
10
178.26215544755482
20
-25.583951855576341
30
0
10
178.75424227410747
20
-25.19373564972917
30
0
10
179.00000266730785
20
-25.00000037252903
30
0
0
ARC
5
353
100
AcDbEntity
8
0
100
AcDbCircle
10
192.91780810691915
20
-43.356896002202106
30
0
40
27.021107284913512
100
AcDbArc
50
184.60694839656719
51
220.28478929740209
0
SPLINE
5
354
100
AcDbEntity
8
0
100
AcDbSpline
70
1064
71
5
72
21
73
15
74
0
42
0.000000001
43
0.0000000001
44
0.0000000001
40
0
40
0
40
0
40
0
40
0
40
0
40
0.10000000000000001
40
0.20000000000000001
40
0.30000000000000004
40
0.40000000000000002
40
0.5
40
0.59999999999999998
40
0.69999999999999996
40
0.79999999999999993
40
0.89999999999999991
40
1
40
1
40
1
40
1
40
1
40
1
10
176.00000262260437
20
-58.000000864267349
30
0
10
175.83709544547008
20
-57.76726938897626
30
0
10
175.5142461901325
20
-57.296926195810002
30
0
10
175.0388675762608
20
-56.576772220319647
30
0
10
174.42456705490099
20
-55.59205204890975
30
0
10
173.70025571428656
20
-54.348030906417613
30
0
10
173.03497206054709
20
-53.127732151348468
30
0
10
172.44608340352667
20
-51.970916317917727
30
0
10
171.94975846798147
20
-50.914070731798169
30
0
10
171.55659983294515
20
-49.982883225788385
30
0
10
171.26653776356903
20
-49.184016312242711
30
0
10
171.11333033930521
20
-48.648617093869653
30
0
10
171.04055028945598
20
-48.302935180026211
30
0
10
171.01044868730372
20
-48.096907654891879
30
0
10
171.00000254809856
20
-48.000000715255737
30
0
0
SPLINE
5
355
100
AcDbEntity
8
0
100
AcDbSpline
70
1064
71
5
72
26
73
20
74
0
42
0.000000001
43
0.0000000001
44
0.0000000001
40
0
40
0
40
0
40
0
40
0
40
0
40
0.066666666666666666
40
0.13333333333333333
40
0.20000000000000001
40
0.26666666666666666
40
0.33333333333333331
40
0.39999999999999997
40
0.46666666666666662
40
0.53333333333333333
40
0.59999999999999998
40
0.66666666666666663
40
0.73333333333333328
40
0.79999999999999993
40
0.86666666666666659
40
0.93333333333333324
40
1
40
1
40
1
40
1
40
1
40
1
10
190.00000283122063
20
-66.000000983476639
30
0
10
189.84495955347117
20
-65.976086198685692
30
0
10
189.53327821609136
20
-65.924229625921527
30
0
10
189.06097043593007
20
-65.834363884069433
30
0
10
188.41931891963208
20
-65.690744077347645
30
0
10
187.58568792041953
20
-65.473549813485562
30
0
10
186.70892119984754
20
-65.221161520451886
30
0
10
185.78313915599449
20
-64.936030911014058
30
0
10
184.81522083323543
20
-64.620170923856534
30
0
10
183.82840464542915
20
-64.274803177881026
30
0
10
182.85347468143539
20
-63.900026210575561
30
0
10
181.92238904115362
20
-63.494545505993692
30
0
10
181.06083675867811
20
-63.055428361893235
30
0
10
180.28144343047813
20
-62.577938063248013
30
0
10
179.57497675653428
20
-62.055314544097968
30
0
10
178.9183932096648
20
-61.479830854204529
30
0
10
178.41100078453883
20
-60.97121841760756
30
0
10
178.02990416608128
20
-60.560043415225877
30
0
10
177.77415121008488
20
-60.272384645698516
30
0
10
177.6458524189492
20
-60.125169685367624
30
0
0
ARC
5
356
100
AcDbEntity
8
0
100
AcDbCircle
10
192.91780810691915
20
-43.356896002202106
30
0
40
27.021107284913512
100
AcDbArc
50
226.01516325585794
51
260.06136600543033
0
ARC
5
357
100
AcDbEntity
8
0
100
AcDbCircle
10
192.91780810691915
20
-43.356896002202106
30
0
40
27.021107284913519
100
AcDbArc
50
266.24229816024183
51
320.71522749840346
0
SPLINE
5
358
100
AcDbEntity
8
0
100
AcDbSpline
70
1064
71
5
72
21
73
15
74
0
42
0.000000001
43
0.0000000001
44
0.0000000001
40
0.54774967645619843
40
0.54774967645619843
40
0.54774967645619843
40
0.54774967645619843
40
0.54774967645619843
40
0.54774967645619843
40
0.55000000000000004
40
0.5625
40
0.57499999999999996
40
0.58749999999999991
40
0.59999999999999987
40
0.61249999999999982
40
0.62499999999999978
40
0.63749999999999973
40
0.64999999999999969
40
0.66006387928942711
40
0.66006387928942711
40
0.66006387928942711
40
0.66006387928942711
40
0.66006387928942711
40
0.66006387928942711
10
216.86102809079728
20
-40.531307056442913
30
0
10
216.86988028238937
20
-40.596714453836839
30
0
10
216.92592315351536
20
-41.024875272314119
30
0
10
217.00548292863203
20
-41.80893250921887
30
0
10
217.05719940985466
20
-42.933071116401536
30
0
10
217.00338514488467
20
-44.373388539794959
30
0
10
216.76121712890085
20
-46.051705559470307
30
0
10
216.3495069701828
20
-47.702139443124423
30
0
10
215.7798148477267
20
-49.341496681414085
30
0
10
215.06752883971942
20
-50.981485837942593
30
0
10
214.26498634468518
20
-52.559295955820161
30
0
10
213.55838061410947
20
-53.799971765190691
30
0
10
213.00997845875872
20
-54.696576101363576
30
0
10
212.64902607710752
20
-55.261313917189824
30
0
10
212.4867379482852
20
-55.510325915674429
30
0
0
ARC
5
359
100
AcDbEntity
8
0
100
AcDbCircle
10
192.91780810691915
20
-43.356896002202106
30
0
40
27.021107284913498
100
AcDbArc
50
-32.813999468135009
51
6.002375419157282
0
SPLINE
5
360
100
AcDbEntity
8
0
100
AcDbSpline
70
1064
71
5
72
18
73
12
74
0
42
0.000000001
43
0.0000000001
44
0.0000000001
40
0.36500030837929809
40
0.36500030837929809
40
0.36500030837929809
40
0.36500030837929809
40
0.36500030837929809
40
0.36500030837929809
40
0.37500000000000017
40
0.38750000000000018
40
0.40000000000000019
40
0.4125000000000002
40
0.42500000000000021
40
0.43750000000000022
40
0.44910018682280828
40
0.44910018682280828
40
0.44910018682280828
40
0.44910018682280828
40
0.44910018682280828
40
0.44910018682280828
10
197.00000293550627
20
-20.000000298019636
30
0
10
197.30653115720244
20
-20.049007283567249
30
0
10
197.99830561452416
20
-20.17199871930389
30
0
10
199.08012058958133
20
-20.408655044608132
30
0
10
200.5528870470545
20
-20.82873814909339
30
0
10
202.40064963531114
20
-21.533627744908582
30
0
10
204.28744465856033
20
-22.459617419959713
30
0
10
206.08619147459703
20
-23.557051204924097
30
0
10
207.45459221563692
20
-24.569378659555309
30
0
10
208.42931196657432
20
-25.394574374126204
30
0
10
209.04914160255245
20
-25.966312372815295
30
0
10
209.3421422229041
20
-26.247801350988563
30
0
0
SPLINE
5
361
100
AcDbEntity
8
0
100
AcDbSpline
70
1064
71
5
72
17
73
11
74
0
42
0.000000001
43
0.0000000001
44
0.0000000001
40
0.46285357000192118
40
0.46285357000192118
40
0.46285357000192118
40
0.46285357000192118
40
0.46285357000192118
40
0.46285357000192118
40
0.47500000000000026
40
0.48750000000000027
40
0.50000000000000022
40
0.51250000000000018
40
0.52500000000000013
40
0.53062813917778218
40
0.53062813917778218
40
0.53062813917778218
40
0.53062813917778218
40
0.53062813917778218
40
0.53062813917778218
10
211.00000314425958
20
-28.000000417365602
30
0
10
211.27819572084491
20
-28.32331661485717
30
0
10
211.82898711440015
20
-28.990865999904528
30
0
10
212.6157739303415
20
-30.029662332683845
30
0
10
213.57451085862118
20
-31.472711408265784
30
0
10
214.60829890657612
20
-33.339884578032809
30
0
10
215.37606019314347
20
-35.037693763811617
30
0
10
215.86235101251563
20
-36.353858853674524
30
0
10
216.15189637248321
20
-37.282134283665911
30
0
10
216.30363347200131
20
-37.82823254763565
30
0
10
216.34884759152106
20
-37.997425982619887
30
0
0
ARC
5
362
100
AcDbEntity
8
0
100
AcDbCircle
10
192.91780810691915
20
-43.356896002202106
30
0
40
27.021107284913501
100
AcDbArc
50
11.440129825558385
51
39.284772501596528
0
ARC
5
363
100
AcDbEntity
8
0
100
AcDbCircle
10
192.91780810691915
20
-43.356896002202106
30
0
40
27.021107284913505
100
AcDbArc
50
44.374151309246592
51
81.310811147168565
0
SPLINE
5
364
100
AcDbEntity
8
0
100
AcDbSpline
70
1064
71
5
72
26
73
20
74
0
42
0.000000001
43
0.0000000001
44
0.0000000001
40
0
40
0
40
0
40
0
40
0
40
0
40
0.066666666666666666
40
0.13333333333333333
40
0.20000000000000001
40
0.26666666666666666
40
0.33333333333333331
40
0.39999999999999997
40
0.46666666666666662
40
0.53333333333333333
40
0.59999999999999998
40
0.66666666666666663
40
0.73333333333333328
40
0.79999999999999993
40
0.86666666666666659
40
0.93333333333333324
40
1
40
1
40
1
40
1
40
1
40
1
10
181.10820068362227
20
-53.459648737796677
30
0
10
181.10272318484678
20
-53.540499569230633
30
0
10
181.09794486527602
20
-53.702857067066802
30
0
10
181.10930782170971
20
-53.948360873803139
30
0
10
181.16178524563534
20
-54.279662534779604
30
0
10
181.2906692420755
20
-54.700483619803535
30
0
10
181.48313849189441
20
-55.127950866383387
30
0
10
181.73759237454243
20
-55.5617372693345
30
0
10
182.04863487548107
20
-56.00099624481345
30
0
10
182.40774062763975
20
-56.44445826831533
30
0
10
182.80495385552794
20
-56.890664891509878
30
0
10
183.2300861163408
20
-57.338145130616212
30
0
10
183.67386555084565
20
-57.785585569524827
30
0
10
184.12925121297249
20
-58.232042858273317
30
0
10
184.59165946918205
20
-58.676966708856206
30
0
10
185.05828568360155
20
-59.120067371872899
30
0
10
185.43382829045086
20
-59.473005709914013
30
0
10
185.71651694984169
20
-59.736839228445447
30
0
10
185.90543158722281
20
-59.912344327003808
30
0
10
186.00000277161598
20
-60.000000894069672
30
0
0
SPLINE
5
365
100
AcDbEntity
8
0
100
AcDbSpline
70
1064
71
5
72
26
73
20
74
0
42
0.000000001
43
0.0000000001
44
0.0000000001
40
0
40
0
40
0
40
0
40
0
40
0
40
0.066666666666666666
40
0.13333333333333333
40
0.20000000000000001
40
0.26666666666666666
40
0.33333333333333331
40
0.39999999999999997
40
0.46666666666666662
40
0.53333333333333333
40
0.59999999999999998
40
0.66666666666666663
40
0.73333333333333328
40
0.79999999999999993
40
0.86666666666666659
40
0.93333333333333324
40
1
40
1
40
1
40
1
40
1
40
1
10
193.00000287592411
20
-66.000000983476639
30
0
10
193.13373843566882
20
-66.034885601776836
30
0
10
193.40825958697434
20
-66.097441115278542
30
0
10
193.84119176050058
20
-66.169633012286297
30
0
10
194.46104007808322
20
-66.222293232698149
30
0
10
195.30742342987372
20
-66.214226158785848
30
0
10
196.22373107950824
20
-66.131946745144432
30
0
10
197.20408530115827
20
-65.977458305067131
30
0
10
198.23558965672675
20
-65.757087675604012
30
0
10
199.29672756814466
20
-65.482710061489669
30
0
10
200.36126614720447
20
-65.169211373581533
30
0
10
201.40101250256481
20
-64.832807110178436
30
0
10
202.38906831130734
20
-64.489149911424192
30
0
10
203.30255596625946
20
-64.151805273452169
30
0
10
204.12676576250152
20
-63.830119358437841
30
0
10
204.85555501771131
20
-63.52891539761081
30
0
10
205.36112480318866
20
-63.305965138213779
30
0
10
205.69720516997992
20
-63.149018390400435
30
0
10
205.90224010593485
20
-63.048918297223821
30
0
10
206.00000306963921
20
-63.000000938773155
30
0
0
SPLINE
5
366
100
AcDbEntity
8
0
100
AcDbSpline
70
1064
71
5
72
18
73
12
74
0
42
0.000000001
43
0.0000000001
44
0.0000000001
40
0.68159599704451568
40
0.68159599704451568
40
0.68159599704451568
40
0.68159599704451568
40
0.68159599704451568
40
0.68159599704451568
40
0.68749999999999956
40
0.69999999999999951
40
0.71249999999999947
40
0.72499999999999942
40
0.73749999999999938
40
0.74999999999999933
40
0.75946010775614137
40
0.75946010775614137
40
0.75946010775614137
40
0.75946010775614137
40
0.75946010775614137
40
0.75946010775614137
10
210.72171898061129
20
-58.000000864394003
30
0
10
210.62503467954926
20
-58.124711618309313
30
0
10
210.32442252576419
20
-58.507505167188832
30
0
10
209.82472032206331
20
-59.117962554067738
30
0
10
209.1424964366874
20
-59.8913893720988
30
0
10
208.32152704164491
20
-60.722569292244756
30
0
10
207.50868464261899
20
-61.449591522189024
30
0
10
206.85969817854712
20
-62.004545777087031
30
0
10
206.44890496018647
20
-62.405278542131022
30
0
10
206.19937698725064
20
-62.709065686717665
30
0
10
206.05800289979584
20
-62.911156854458561
30
0
10
206.0000030255392
20
-63.000001006325448
30
0
0
LINE
5
367
100
AcDbEntity
8
0
100
AcDbLine
10
186.19467838980455
20
-53.319913659724982
30
0
11
191.00000284612179
21
-58.000000864267349
31
0
0
LINE
5
368
100
AcDbEntity
8
0
100
AcDbLine
10
191.00000284612179
20
-58.000000864267349
30
0
11
192.9800681573029
21
-51.978297635316579
31
0
0
LINE
5
369
100
AcDbEntity
8
0
100
AcDbLine
10
192.9800681573029
20
-51.978297635316579
30
0
11
197.58894645280944
21
-56.467052377513618
31
0
0
LINE
5
370
100
AcDbEntity
8
0
100
AcDbLine
10
197.58894645280944
20
-56.467052377513618
30
0
11
199.74468384432069
21
-49.911107327553957
31
0
0
LINE
5
371
100
AcDbEntity
8
0
100
AcDbLine
10
199.74468384432069
20
-49.911107327553957
30
0
11
204.17163083859003
21
-54.22267472755864
31
0
0
LINE
5
372
100
AcDbEntity
8
0
100
AcDbLine
10
204.17163083859003
20
-54.22267472755864
30
0
11
206.39964647886842
21
-47.446917473960831
31
0
0
LINE
5
373
100
AcDbEntity
8
0
100
AcDbLine
10
192.95875933755212
20
-61.362685376201128
30
0
11
194.46660120998746
21
-56.777095586124766
31
0
0
LINE
5
374
100
AcDbEntity
8
0
100
AcDbLine
10
194.46660120998746
20
-56.777095586124766
30
0
11
199.23869650113835
21
-60.53622402839413
31
0
0
LINE
5
375
100
AcDbEntity
8
0
100
AcDbLine
10
199.23869650113835
20
-60.53622402839413
30
0
11
200.99917005353174
21
-55.182340643715307
31
0
0
LINE
5
376
100
AcDbEntity
8
0
100
AcDbLine
10
200.99917005353174
20
-55.182340643715307
30
0
11
205.79873344935646
21
-56.755163369737375
31
0
0
SPLINE
5
377
100
AcDbEntity
8
0
100
AcDbSpline
70
1064
71
5
72
16
73
10
74
0
42
0.000000001
43
0.0000000001
44
0.0000000001
40
0
40
0
40
0
40
0
40
0
40
0
40
0.050000000000000003
40
0.10000000000000001
40
0.15000000000000002
40
0.20000000000000001
40
0.24450678809819659
40
0.24450678809819659
40
0.24450678809819659
40
0.24450678809819659
40
0.24450678809819659
40
0.24450678809819659
10
181.10820068362227
20
-53.459648737796677
30
0
10
181.28325585953439
20
-53.47761956886869
30
0
10
181.64013526925302
20
-53.508757456045799
30
0
10
182.19576083713875
20
-53.541053243593808
30
0
10
182.97737981958596
20
-53.555172156966073
30
0
10
183.99967344660632
20
-53.524775655478194
30
0
10
184.86392927846239
20
-53.463496342159488
30
0
10
185.5328882525815
20
-53.39766628896701
30
0
10
185.98121636417068
20
-53.34608132421306
30
0
10
186.19467838980458
20
-53.319913659724975
30
0
0
SPLINE
5
378
100
AcDbEntity
8
0
100
AcDbSpline
70
1064
71
5
72
13
73
7
74
0
42
0.000000001
43
0.0000000001
44
0.0000000001
40
0.9074539564608618
40
0.9074539564608618
40
0.9074539564608618
40
0.9074539564608618
40
0.9074539564608618
40
0.9074539564608618
40
0.95000000000000029
40
1
40
1
40
1
40
1
40
1
40
1
10
206.39964647886842
20
-47.446917473960831
30
0
10
206.72134653042212
20
-47.320692266088869
30
0
10
207.42580986916875
20
-47.042692131686302
30
0
10
208.14046194699705
20
-46.757255851710759
30
0
10
208.86522289477421
20
-46.464450618010922
30
0
10
209.6000547287002
20
-46.164304155140329
30
0
10
210.00000312924385
20
-46.000000685453415
30
0
0
SPLINE
5
379
100
AcDbEntity
8
0
100
AcDbSpline
70
1064
71
5
72
18
73
12
74
0
42
0.000000001
43
0.0000000001
44
0.0000000001
40
0.83698514929358925
40
0.83698514929358925
40
0.83698514929358925
40
0.83698514929358925
40
0.83698514929358925
40
0.83698514929358925
40
0.85000000000000042
40
0.87500000000000044
40
0.90000000000000047
40
0.92500000000000049
40
0.95000000000000051
40
0.97500000000000053
40
1
40
1
40
1
40
1
40
1
40
1
10
192.95875869807469
20
-61.362685311904379
30
0
10
192.86781548287379
20
-61.353541354516885
30
0
10
192.59986976363817
20
-61.325253423076944
30
0
10
192.14448501800544
20
-61.270778438821182
30
0
10
191.48223067321766
20
-61.177544173769874
30
0
10
190.58444743911369
20
-61.028033179669627
30
0
10
189.53163267769952
20
-60.826295558716971
30
0
10
188.41899623869404
20
-60.588907679109369
30
0
10
187.48114501451821
20
-60.370833218617392
30
0
10
186.75097736186547
20
-60.191533417346164
30
0
10
186.25230925154935
20
-60.065010092078069
30
0
10
186.00000277161598
20
-60.000000894069672
30
0
0
SPLINE
5
380
100
AcDbEntity
8
0
100
AcDbSpline
70
1064
71
5
72
26
73
20
74
0
42
0.000000001
43
0.0000000001
44
0.0000000001
40
0
40
0
40
0
40
0
40
0
40
0
40
0.025000000000000001
40
0.050000000000000003
40
0.075000000000000011
40
0.10000000000000001
40
0.125
40
0.14999999999999999
40
0.17499999999999999
40
0.19999999999999998
40
0.22499999999999998
40
0.24999999999999997
40
0.27499999999999997
40
0.29999999999999999
40
0.32500000000000001
40
0.35000000000000003
40
0.3703356998667402
40
0.3703356998667402
40
0.3703356998667402
40
0.3703356998667402
40
0.3703356998667402
40
0.3703356998667402
10
210.00000312924385
20
-46.000000685453415
30
0
10
210.04239115238934
20
-46.120631065585521
30
0
10
210.11782763088979
20
-46.367908659453363
30
0
10
210.20296327052324
20
-46.756876325590369
30
0
10
210.26038549729287
20
-47.311632481440206
30
0
10
210.23922564846066
20
-48.06390018520748
30
0
10
210.12741349652455
20
-48.870294280176097
30
0
10
209.92985628018357
20
-49.721348081454465
30
0
10
209.65538997225832
20
-50.600494260511077
30
0
10
209.31673843917144
20
-51.484515134099631
30
0
10
208.92845935915238
20
-52.348163696521091
30
0
10
208.50539910389227
20
-53.167718163993683
30
0
10
208.06091796467206
20
-53.925090683630245
30
0
10
207.60528409636203
20
-54.611440480859414
30
0
10
207.14379499290115
20
-55.231787171472028
30
0
10
206.69454217077794
20
-55.77930155148298
30
0
10
206.33242854899538
20
-56.188589072238059
30
0
10
206.05937835434642
20
-56.483315083029559
30
0
10
205.87998147237511
20
-56.67123518723556
30
0
10
205.79873344936652
20
-56.755163369726922
30
0
0
CIRCLE
5
381
100
AcDbEntity
8
0
100
AcDbCircle
10
118.14730577218486
20
-42.822626930090863
30
0
40
3.3763439825132808
0
LINE
5
382
100
AcDbEntity
8
0
100
AcDbLine
10
43.21094609997224
20
-118.60413351589999
30
0
11
23.018585350175996
21
-91.998041977748017
31
0
0
LINE
5
383
100
AcDbEntity
8
0
100
AcDbLine
10
43.21094609997224
20
-118.60413351589999
30
0
11
40.156391392840916
21
-85.34326709411873
31
0
0
LINE
5
384
100
AcDbEntity
8
0
100
AcDbLine
10
43.21094609997224
20
-118.60413351589999
30
0
11
70.927256781168097
21
-99.964882945937106
31
0
0
LINE
5
385
100
AcDbEntity
8
0
100
AcDbLine
10
43.21094609997224
20
-118.60413351589999
30
0
11
73.848252000659784
21
-105.30108774682401
31
0
0
LINE
5
386
100
AcDbEntity
8
0
100
AcDbLine
10
43.21094609997224
20
-118.60413351589999
30
0
11
66.03054930899728
21
-142.99432107092073
31
0
0
LINE
5
387
100
AcDbEntity
8
0
100
AcDbLine
10
43.21094609997224
20
-118.60413351589999
30
0
11
61.85019666993513
21
-146.32044419709587
31
0
0
LINE
5
388
100
AcDbEntity
8
0
100
AcDbLine
10
43.21094609997224
20
-118.60413351589999
30
0
11
11.283067663246239
21
-128.41362474205852
31
0
0
LINE
5
389
100
AcDbEntity
8
0
100
AcDbLine
10
43.21094609997224
20
-118.60413351589999
30
0
11
12.820699800504848
21
-132.46228885649793
31
0
0
LINE
5
390
100
AcDbEntity
8
0
100
AcDbLine
10
43.21094609997224
20
-118.60413351589999
30
0
11
76.471812521753506
21
-115.54957880876867
31
0
0
LINE
5
391
100
AcDbEntity
8
0
100
AcDbLine
10
43.21094609997224
20
-118.60413351589999
30
0
11
76.471812521753506
21
-118.60413351589999
31
0
0
ARC
5
392
100
AcDbEntity
8
0
100
AcDbCircle
10
43.21094609997224
20
-118.60413351589999
30
0
40
33.400831420586435
100
AcDbArc
50
197.07900253365665
51
204.51330269001613
0
ARC
5
393
100
AcDbEntity
8
0
100
AcDbCircle
10
43.21094609997224
20
-118.60413351589999
30
0
40
33.400831420586442
100
AcDbArc
50
303.92087682195336
51
313.0945758015003
0
ARC
5
394
100
AcDbEntity
8
0
100
AcDbCircle
10
43.21094609997224
20
-118.60413351589999
30
0
40
33.400831420586442
100
AcDbArc
50
23.471001062678607
51
33.920876821953364
0
ARC
5
395
100
AcDbEntity
8
0
100
AcDbCircle
10
43.21094609997224
20
-118.60413351589999
30
0
40
33.400831420586435
100
AcDbArc
50
95.2471138624242
51
127.19622622136656
0
LINE
5
396
100
AcDbEntity
8
0
100
AcDbLine
10
76.471812521753506
20
-115.54957880876867
30
0
11
76.471812521753506
21
-118.60413351589999
31
0
0
LWPOLYLINE
5
397
100
AcDbEntity
8
0
100
AcDbPolyline
90
4
70
1
43
0.0
10
25
20
-104.50789842864583
10
20.341006571585005
20
-104.50789842864583
10
20.341006571585005
20
-110
10
25
20
-110
0
LWPOLYLINE
5
398
100
AcDbEntity
8
0
100
AcDbPolyline
90
4
70
1
43
0.0
10
50.348218378356684
20
-100
10
45
20
-100
10
45
20
-104.50789842864583
10
50.348218378356684
20
-104.50789842864583
0
LWPOLYLINE
5
399
100
AcDbEntity
8
0
100
AcDbPolyline
90
4
70
1
43
0.0
10
29.407933880105936
20
-132.46228885649793
10
24.442711782582567
20
-132.46228885649793
10
24.442711782582567
20
-137.64976596850215
10
29.407933880105936
20
-137.64976596850215
0
LWPOLYLINE
5
400
100
AcDbEntity
8
0
100
AcDbPolyline
90
4
70
1
43
0.0
10
41.065411848204292
20
-125.99228800040379
10
36.747827415575273
20
-125.99228800040379
10
36.747827415575273
20
-130.79922729341035
10
41.065411848204292
20
-130.79922729341035
0
LWPOLYLINE
5
401
100
AcDbEntity
8
0
100
AcDbPolyline
90
4
70
1
43
0.0
10
65.459763892558243
20
-123.83349578408928
10
62.005696346455004
20
-123.83349578408928
10
62.005696346455004
20
-132.46228885649793
10
65.459763892558243
20
-132.46228885649793
0
LWPOLYLINE
5
402
100
AcDbEntity
8
0
100
AcDbPolyline
90
14
70
1
43
0.0
10
196.07270107834634
20
-85.989830361956976
10
194.96841123352962
20
-97.900385116766245
42
0.084130765616185987
10
188.02401745335624
20
-98.425093749539514
10
185.14259290444787
20
-86.815693971875618
42
0.090848520544276015
10
174.36911793504726
20
-91.684853960441743
10
181.1791398567172
20
-101.51869207457855
10
186.18806412281333
20
-108.75170114933977
42
-0.47037215446191943
10
204.05138227616374
20
-113.76579698480171
10
212.0926089631343
20
-110.19586477986886
10
223.02528174999324
20
-105.342264429186
42
0.090848520544276251
10
216.35930094701976
20
-95.577983511220538
10
207.85740882692073
20
-103.99217396585564
42
0.084130765616186168
10
202.20041835294666
20
-99.930353819568467
10
207.45549742196883
20
-89.184893633657396
42
0.090848520544276015
0
LWPOLYLINE
5
403
100
AcDbEntity
8
0
100
AcDbPolyline
90
10
70
1
43
0.0
10
161.40389927833075
20
-109.99828947180677
10
172.94174802437482
20
-113.15404880072975
42
0.084130765616185557
10
172.25260382907376
20
-120.08405633330142
10
160.31922279820944
20
-120.90575445358787
42
0.090848520544276168
10
163.24361501002949
20
-132.36107688911977
10
174.11060292326817
20
-127.36214257046761
10
182.10351690857988
20
-123.6853139638458
42
-0.27152507371667745
10
183.30896712117294
20
-111.56335297169031
10
176.19670179842763
20
-106.38441248565087
10
166.52702420148972
20
-99.343240296309645
42
0.090848520544276085
0
LWPOLYLINE
5
404
100
AcDbEntity
8
0
100
AcDbPolyline
90
14
70
1
43
0.0
10
179.02744169311865
20
-148.30941944512216
10
184.13878435582987
20
-137.49484840355865
42
0.08413076561618564
10
190.8438408686757
20
-139.3769061292837
10
189.58084567875466
20
-151.27167866930779
42
0.090848520544275918
10
201.36995140488708
20
-150.38091041177609
10
198.33399477894207
20
-138.81096062821803
42
0.084130765616185987
10
204.68012944821723
20
-135.94277324193345
10
211.35843141005938
20
-145.86653530755808
42
0.090848520544276085
10
219.81683554186185
20
-137.6062761437266
10
210.05413747343988
20
-130.6946557075695
10
202.87345350208818
20
-125.61100344933651
42
-0.47037215446192088
10
184.37250347434045
20
-127.00890922792054
10
178.03721081892155
20
-133.11380968159375
10
169.42388796322939
20
-141.4138964288685
42
0.090848520544275835
0
LWPOLYLINE
5
405
100
AcDbEntity
8
0
100
AcDbPolyline
90
6
70
1
43
0.0
10
225.73659200207169
20
-115.96290998923949
10
213.81522741769055
20
-116.94364291666618
10
205.04679568009595
20
-117.66499403935717
42
-0.09084852054427503
10
204.61727814979423
20
-121.98420581050492
10
213.0719233579598
20
-124.41827996367005
10
224.56667076256036
20
-127.72759299405925
42
0.090848520544276015
0
LINE
5
406
100
AcDbEntity
8
0
100
AcDbLine
10
24.81448653627066
20
-65.417235414621004
30
0
11
24.894833681263037
21
-32.359805515520648
31
0
0
LINE
5
407
100
AcDbEntity
8
0
100
AcDbLine
10
24.894833681263037
20
-32.359805515520648
30
0
11
28.585383538456526
21
-32.368775515468691
31
0
0
LINE
5
408
100
AcDbEntity
8
0
100
AcDbLine
10
28.585383538456526
20
-32.368775515468691
30
0
11
28.577835607634032
21
-35.474239861109695
31
0
0
LINE
5
409
100
AcDbEntity
8
0
100
AcDbLine
10
28.893367680074036
20
-53.79284614095981
30
0
11
28.865090299746548
21
-65.427080537151227
31
0
0
LINE
5
410
100
AcDbEntity
8
0
100
AcDbLine
10
28.865090299746548
20
-65.427080537151227
30
0
11
24.81448653627066
21
-65.417235414621004
31
0
0
LINE
5
411
100
AcDbEntity
8
0
100
AcDbLine
10
50.265669760598186
20
-65.524104125106192
30
0
11
49.824847054281776
21
-61.719939945601034
31
0
0
LINE
5
412
100
AcDbEntity
8
0
100
AcDbLine
10
57.241466676218366
20
-56.382139339026345
30
0
11
48.230811383189604
21
-32.416526742941116
31
0
0
LINE
5
413
100
AcDbEntity
8
0
100
AcDbLine
10
48.230811383189604
20
-32.416526742941116
30
0
11
52.596462016640245
21
-32.427137597006364
31
0
0
LINE
5
414
100
AcDbEntity
8
0
100
AcDbLine
10
52.596462016640245
20
-32.427137597006364
30
0
11
57.53606641606504
21
-46.278786813101043
31
0
0
LINE
5
415
100
AcDbEntity
8
0
100
AcDbLine
10
60.933855478995191
20
-46.377060448957167
30
0
11
66.075972086484256
21
-32.459899979118759
31
0
0
LINE
5
416
100
AcDbEntity
8
0
100
AcDbLine
10
66.075972086484256
20
-32.459899979118759
30
0
11
70.126572571714362
21
-32.469745093681091
31
0
0
LINE
5
417
100
AcDbEntity
8
0
100
AcDbLine
10
70.126572571714362
20
-32.469745093681091
30
0
11
60.976151427360755
21
-56.751272643547438
31
0
0
SPLINE
5
418
100
AcDbEntity
8
0
100
AcDbSpline
70
1064
71
3
72
9
73
5
74
3
42
0.000000001
43
0.0000000001
44
0.0000000001
40
0
40
0
40
0
40
0
40
0.21153610935120287
40
0.40457368095111934
40
0.40457368095111934
40
0.40457368095111934
40
0.40457368095111934
10
28.577835607634032
20
-35.474239861109687
30
0
10
29.014674172292633
20
-34.913459470298619
30
0
10
29.850150378352151
20
-33.840938151780044
30
0
10
30.989022225957449
20
-33.100526511699627
30
0
10
31.532421527929827
20
-32.74724780941375
30
0
11
28.577835607634032
21
-35.474239861109687
31
0
11
29.971294945070056
21
-33.882692302644422
31
0
11
31.532421527929827
21
-32.74724780941375
31
0
0
SPLINE
5
419
100
AcDbEntity
8
0
100
AcDbSpline
70
1064
71
3
72
9
73
5
74
3
42
0.000000001
43
0.0000000001
44
0.0000000001
40
0
40
0
40
0
40
0
40
0.29072345733017846
40
0.56907766718050978
40
0.56907766718050978
40
0.56907766718050978
40
0.56907766718050978
10
35.517729144113623
20
-31.845543138340933
30
0
10
36.498847917248924
20
-31.907666559020473
30
0
10
38.419342354712676
20
-32.029270270128791
30
0
10
40.095059491734887
20
-32.972526856371033
30
0
10
40.914706697219984
20
-33.433904023130061
30
0
11
35.517729144113623
21
-31.845543138340933
31
0
11
38.397202036597015
21
-32.246353225108415
31
0
11
40.914706697219984
21
-33.433904023130061
31
0
0
SPLINE
5
420
100
AcDbEntity
8
0
100
AcDbSpline
70
1064
71
3
72
9
73
5
74
3
42
0.000000001
43
0.0000000001
44
0.0000000001
40
0
40
0
40
0
40
0
40
0.27967403033144822
40
0.57411945018303978
40
0.57411945018303978
40
0.57411945018303978
40
0.57411945018303978
10
40.914706697219984
20
-33.433904023130061
30
0
10
41.65036297538532
20
-34.02644337276201
30
0
10
43.160530284961574
20
-35.242817897130045
30
0
10
44.004228902308398
20
-36.99055236953091
30
0
10
44.436931876460719
20
-37.88690313826222
30
0
11
40.914706697219984
21
-33.433904023130061
31
0
11
42.963521774264834
21
-35.337614375115706
31
0
11
44.436931876460719
21
-37.88690313826222
31
0
0
SPLINE
5
421
100
AcDbEntity
8
0
100
AcDbSpline
70
1064
71
3
72
9
73
5
74
3
42
0.000000001
43
0.0000000001
44
0.0000000001
40
0
40
0
40
0
40
0
40
0.31372479134364029
40
0.64334470302433244
40
0.64334470302433244
40
0.64334470302433244
40
0.64334470302433244
10
44.436931876460719
20
-37.88690313826222
30
0
10
44.782323840392792
20
-38.880547118306637
30
0
10
45.490607331509914
20
-40.918178854439908
30
0
10
45.57241064236613
20
-43.074626255193564
30
0
10
45.614322855170329
20
-44.179489633160301
30
0
11
44.436931876460719
21
-37.88690313826222
31
0
11
45.324131340918719
21
-40.896089337324433
31
0
11
45.614322855170329
21
-44.179489633160301
31
0
0
SPLINE
5
422
100
AcDbEntity
8
0
100
AcDbSpline
70
1064
71
3
72
9
73
5
74
3
42
0.000000001
43
0.0000000001
44
0.0000000001
40
0
40
0
40
0
40
0
40
0.35007242372358865
40
0.67727785980103716
40
0.67727785980103716
40
0.67727785980103716
40
0.67727785980103716
10
45.614322855170329
20
-44.179489633160301
30
0
10
45.564412462025423
20
-45.353833198556373
30
0
10
45.467851859246544
20
-47.625811345771325
30
0
10
44.66816512068646
20
-49.753230106188553
30
0
10
44.281821695710519
20
-50.781025379794812
30
0
11
45.614322855170329
21
-44.179489633160301
31
0
11
45.276739907841581
21
-47.66389890000076
31
0
11
44.281821695710519
21
-50.781025379794812
31
0
0
SPLINE
5
423
100
AcDbEntity
8
0
100
AcDbSpline
70
1064
71
3
72
9
73
5
74
3
42
0.000000001
43
0.0000000001
44
0.0000000001
40
0
40
0
40
0
40
0
40
0.30550522628158078
40
0.5974921003370437
40
0.5974921003370437
40
0.5974921003370437
40
0.5974921003370437
10
44.281821695710519
20
-50.781025379794812
30
0
10
43.800933684375103
20
-51.695331304300865
30
0
10
42.860436556332914
20
-53.48348587642662
30
0
10
41.238119049265151
20
-54.685158662478273
30
0
10
40.445312889406381
20
-55.272401038132784
30
0
11
44.281821695710519
21
-50.781025379794812
31
0
11
42.660902165015656
21
-53.370613031052812
31
0
11
40.445312889406381
21
-55.272401038132784
31
0
0
SPLINE
5
424
100
AcDbEntity
8
0
100
AcDbSpline
70
1064
71
3
72
9
73
5
74
3
42
0.000000001
43
0.0000000001
44
0.0000000001
40
0
40
0
40
0
40
0
40
0.17561700254197832
40
0.34329625859261026
40
0.34329625859261026
40
0.34329625859261026
40
0.34329625859261026
10
31.532261775764184
20
-55.959596257581758
30
0
10
31.024771269919849
20
-55.659813997656514
30
0
10
30.032728418681749
20
-55.073799393517163
30
0
10
29.267254795108162
20
-54.213197571251754
30
0
10
28.893367680074036
20
-53.79284614095981
30
0
11
31.532261775764184
21
-55.959596257581758
31
0
11
30.069082231504531
21
-54.988391449396062
31
0
11
28.893367680074036
21
-53.79284614095981
31
0
0
SPLINE
5
425
100
AcDbEntity
8
0
100
AcDbSpline
70
1064
71
3
72
9
73
5
74
3
42
0.000000001
43
0.0000000001
44
0.0000000001
40
0
40
0
40
0
40
0
40
0.40383199361627775
40
0.71757223654328639
40
0.71757223654328639
40
0.71757223654328639
40
0.71757223654328639
10
28.533509180883613
20
-44.453023792165432
30
0
10
28.560492219502358
20
-45.827483283747775
30
0
10
28.608438592440748
20
-48.269771133655098
30
0
10
29.844346117169131
20
-50.361516235138488
30
0
10
30.384715305519418
20
-51.276078676185762
30
0
11
28.533509180883613
21
-44.453023792165432
31
0
11
28.990704763628599
21
-48.465379721781872
31
0
11
30.384715305519418
21
-51.276078676185762
31
0
0
SPLINE
5
426
100
AcDbEntity
8
0
100
AcDbSpline
70
1064
71
3
72
9
73
5
74
3
42
0.000000001
43
0.0000000001
44
0.0000000001
40
0
40
0
40
0
40
0
40
0.32493822423909446
40
0.74430047164974478
40
0.74430047164974478
40
0.74430047164974478
40
0.74430047164974478
10
39.532520178732049
20
-51.219553283652729
30
0
10
40.09371042008992
20
-50.273486896693868
30
0
10
41.379167562923755
20
-48.106436037490205
30
0
10
41.439669900530738
20
-45.573857875136255
30
0
10
41.473758816551751
20
-44.146923847331855
30
0
11
39.532520178732049
21
-51.219553283652729
31
0
11
40.982624128566265
21
-48.311687486914359
31
0
11
41.473758816551751
21
-44.146923847331855
31
0
0
SPLINE
5
427
100
AcDbEntity
8
0
100
AcDbSpline
70
1064
71
3
72
9
73
5
74
3
42
0.000000001
43
0.0000000001
44
0.0000000001
40
0
40
0
40
0
40
0
40
0.40218858241332528
40
0.71983109587300365
40
0.71983109587300365
40
0.71983109587300365
40
0.71983109587300365
10
41.473758816551751
20
-44.146923847331855
30
0
10
41.442916237739063
20
-42.779077092193596
30
0
10
41.387714652519847
20
-40.330925474290083
30
0
10
40.155221879496111
20
-38.228902410659963
30
0
10
39.611355263440366
20
-37.301334967255876
30
0
11
41.473758816551751
21
-44.146923847331855
31
0
11
41.013710079215279
21
-40.151436299905484
31
0
11
39.611355263440366
21
-37.301334967255876
31
0
0
SPLINE
5
428
100
AcDbEntity
8
0
100
AcDbSpline
70
1064
71
3
72
9
73
5
74
3
42
0.000000001
43
0.0000000001
44
0.0000000001
40
0
40
0
40
0
40
0
40
0.33223359440477623
40
0.74173974486069394
40
0.74173974486069394
40
0.74173974486069394
40
0.74173974486069394
10
30.542148835279534
20
-37.425564584293681
30
0
10
29.960567655501062
20
-38.388728048028526
30
0
10
28.662138227623611
20
-40.539072365645659
30
0
10
28.579263425030405
20
-43.060804121054446
30
0
10
28.533509180883613
20
-44.453023792165432
30
0
11
30.542148835279534
21
-37.425564584293681
31
0
11
29.041275346713725
21
-40.389564398131739
31
0
11
28.533509180883613
21
-44.453023792165432
31
0
0
SPLINE
5
429
100
AcDbEntity
8
0
100
AcDbSpline
70
1064
71
3
72
9
73
5
74
3
42
0.000000001
43
0.0000000001
44
0.0000000001
40
0
40
0
40
0
40
0
40
0.12723004872977611
40
0.23506046153996513
40
0.23506046153996513
40
0.23506046153996513
40
0.23506046153996513
10
49.824847054281776
20
-61.719939945601034
30
0
10
50.23681413176962
20
-61.825735465832203
30
0
10
50.997932848144849
20
-62.02119513957026
30
0
10
51.782095407730168
20
-62.065365136715151
30
0
10
52.141818059325509
20
-62.085627451333082
30
0
11
49.824847054281776
21
-61.719939945601034
31
0
11
51.067499395894806
21
-61.993003469092841
31
0
11
52.141818059325509
21
-62.085627451333082
31
0
0
SPLINE
5
430
100
AcDbEntity
8
0
100
AcDbSpline
70
1064
71
3
72
9
73
5
74
3
42
0.000000001
43
0.0000000001
44
0.0000000001
40
0
40
0
40
0
40
0
40
0.12203819461018425
40
0.22239931447517139
40
0.22239931447517139
40
0.22239931447517139
40
0.22239931447517139
10
52.141818059325509
20
-62.085627451333082
30
0
10
52.55292975039238
20
-62.076368211272467
30
0
10
53.302129282211475
20
-62.059494406734316
30
0
10
53.991943645422388
20
-61.770999682790347
30
0
10
54.30323301317145
20
-61.640811990267643
30
0
11
52.141818059325509
21
-62.085627451333082
31
0
11
53.357271685771941
21
-61.976062053832131
31
0
11
54.30323301317145
21
-61.640811990267643
31
0
0
SPLINE
5
431
100
AcDbEntity
8
0
100
AcDbSpline
70
1064
71
3
72
9
73
5
74
3
42
0.000000001
43
0.0000000001
44
0.0000000001
40
0
40
0
40
0
40
0
40
0.09136923318599563
40
0.18450907528956556
40
0.18450907528956556
40
0.18450907528956556
40
0.18450907528956556
10
54.30323301317145
20
-61.640811990267643
30
0
10
54.562297177213566
20
-61.47514315299447
30
0
10
55.0854458092128
20
-61.140595046332031
30
0
10
55.44997763432
20
-60.63770877662219
30
0
10
55.633992629674154
20
-60.383852711909284
30
0
11
54.30323301317145
21
-61.640811990267643
31
0
11
55.0415287209985
21
-61.102524775944438
31
0
11
55.633992629674154
21
-60.383852711909284
31
0
0
SPLINE
5
432
100
AcDbEntity
8
0
100
AcDbSpline
70
1064
71
3
72
9
73
5
74
3
42
0.000000001
43
0.0000000001
44
0.0000000001
40
0
40
0
40
0
40
0
40
0.11701941279620415
40
0.32621119609106491
40
0.32621119609106491
40
0.32621119609106491
40
0.32621119609106491
10
55.633992629674154
20
-60.383852711909284
30
0
10
55.807032212414391
20
-60.033960317675948
30
0
10
56.289409007067221
20
-59.058576715086879
30
0
10
56.648639736368018
20
-58.030616360213195
30
0
10
56.879006191527225
20
-57.371408882452648
30
0
11
55.633992629674154
21
-60.383852711909284
31
0
11
56.137264684911123
21
-59.327409842874516
31
0
11
56.879006191527225
21
-57.371408882452648
31
0
0
SPLINE
5
433
100
AcDbEntity
8
0
100
AcDbSpline
70
1064
71
3
72
9
73
5
74
3
42
0.000000001
43
0.0000000001
44
0.0000000001
40
0
40
0
40
0
40
0
40
0.044126195333993874
40
0.10536254858802563
40
0.10536254858802563
40
0.10536254858802563
40
0.10536254858802563
10
56.879006191527225
20
-57.371408882452648
30
0
10
56.927559435912102
20
-57.232559379813978
30
0
10
57.04349269351308
20
-56.901020769755739
30
0
10
57.168697860781975
20
-56.57286332482564
30
0
10
57.241466676218366
20
-56.382139339026345
30
0
11
56.879006191527225
21
-57.371408882452648
31
0
11
57.026292183348076
21
-56.955453418395827
31
0
11
57.241466676218366
21
-56.382139339026345
31
0
0
SPLINE
5
434
100
AcDbEntity
8
0
100
AcDbSpline
70
1064
71
3
72
9
73
5
74
3
42
0.000000001
43
0.0000000001
44
0.0000000001
40
0
40
0
40
0
40
0
40
0.28518643408890604
40
0.58023077351204166
40
0.58023077351204166
40
0.58023077351204166
40
0.58023077351204166
10
57.536066416065033
20
-46.278786813101043
30
0
10
57.850085545845701
20
-47.176389285742566
30
0
10
58.488978356972225
20
-49.002621233524309
30
0
10
58.997029281797346
20
-50.86951644348968
30
0
10
59.255370542466835
20
-51.818822976582439
30
0
11
57.536066416065033
21
-46.278786813101043
31
0
11
58.446515369562171
21
-48.98141755404783
31
0
11
59.255370542466835
21
-51.818822976582439
31
0
0
SPLINE
5
435
100
AcDbEntity
8
0
100
AcDbSpline
70
1064
71
3
72
9
73
5
74
3
42
0.000000001
43
0.0000000001
44
0.0000000001
40
0
40
0
40
0
40
0
40
0.2860876880800261
40
0.56966877103476066
40
0.56966877103476066
40
0.56966877103476066
40
0.56966877103476066
10
59.255370542466835
20
-51.818822976582439
30
0
10
59.500683614831487
20
-50.896866539184309
30
0
10
59.989160408050388
20
-49.061031539905116
30
0
10
60.619882203725425
20
-47.269089231653666
30
0
10
60.933855478995191
20
-46.377060448957167
30
0
11
59.255370542466835
21
-51.818822976582439
31
0
11
60.027184645487566
21
-49.064023615925521
31
0
11
60.933855478995191
21
-46.377060448957167
31
0
0
SPLINE
5
436
100
AcDbEntity
8
0
100
AcDbSpline
70
1064
71
3
72
9
73
5
74
3
42
0.000000001
43
0.0000000001
44
0.0000000001
40
0
40
0
40
0
40
0
40
0.35698345008976839
40
0.58829965807287654
40
0.58829965807287654
40
0.58829965807287654
40
0.58829965807287654
10
60.976151427360762
20
-56.751272643547431
30
0
10
60.560722040471106
20
-57.867299640500811
30
0
10
59.876104963127162
20
-59.706483783470652
30
0
10
59.024841902817194
20
-61.474054858505475
30
0
10
58.690129923292965
20
-62.169054137881268
30
0
11
60.976151427360762
21
-56.751272643547431
31
0
11
59.668502069773538
21
-60.072984780593814
31
0
11
58.690129923292965
21
-62.169054137881268
31
0
0
SPLINE
5
437
100
AcDbEntity
8
0
100
AcDbSpline
70
1064
71
3
72
9
73
5
74
3
42
0.000000001
43
0.0000000001
44
0.0000000001
40
0
40
0
40
0
40
0
40
0.20869451717514878
40
0.38690022775978239
40
0.38690022775978239
40
0.38690022775978239
40
0.38690022775978239
10
58.690129923292965
20
-62.169054137881268
30
0
10
58.336753581165475
20
-62.77629660739187
30
0
10
57.681626704308883
20
-63.90206767670027
30
0
10
56.672449169336389
20
-64.722045399694451
30
0
10
56.207623390434321
20
-65.099726006490243
30
0
11
58.690129923292965
21
-62.169054137881268
31
0
11
57.526988494886524
21
-63.901809795041693
31
0
11
56.207623390434321
21
-65.099726006490243
31
0
0
SPLINE
5
438
100
AcDbEntity
8
0
100
AcDbSpline
70
1064
71
3
72
9
73
5
74
3
42
0.000000001
43
0.0000000001
44
0.0000000001
40
0
40
0
40
0
40
0
40
0.16829145351047586
40
0.34982649999100091
40
0.34982649999100091
40
0.34982649999100091
40
0.34982649999100091
10
56.207623390434321
20
-65.099726006490243
30
0
10
55.708006875107472
20
-65.37079143571772
30
0
10
54.669456828455168
20
-65.934253622282696
30
0
10
53.487965819347934
20
-65.994338787146077
30
0
10
52.874856105646657
20
-66.025518709754991
30
0
11
56.207623390434321
21
-65.099726006490243
31
0
11
54.675693089307629
21
-65.796426002870859
31
0
11
52.874856105646657
21
-66.025518709754991
31
0
0
SPLINE
5
439
100
AcDbEntity
8
0
100
AcDbSpline
70
1064
71
3
72
9
73
5
74
3
42
0.000000001
43
0.0000000001
44
0.0000000001
40
0
40
0
40
0
40
0
40
0.12438610157788761
40
0.26659007775894694
40
0.26659007775894694
40
0.26659007775894694
40
0.26659007775894694
10
52.874856105646657
20
-66.025518709754991
30
0
10
52.459481496132895
20
-65.998884536766923
30
0
10
51.569231315086512
20
-65.941800938536431
30
0
10
50.719129478170814
20
-65.669405034293717
30
0
10
50.265669760598186
20
-65.524104125106192
30
0
11
52.874856105646657
21
-66.025518709754991
31
0
11
51.637472517720333
21
-65.898742990845477
31
0
11
50.265669760598186
21
-65.524104125106192
31
0
0
LWPOLYLINE
5
440
100
AcDbEntity
8
0
100
AcDbPolyline
90
20
70
1
43
0.0
10
106.74225470790917
20
-103.41563588225995
10
106.75449255547306
20
-93.709023618887869
10
119.74882884654349
20
-93.725406544506939
10
119.75317130969736
20
-90.281123889177636
10
90.476777680088077
20
-90.244212963641729
10
90.472435216934173
20
-93.68849561897099
10
103.15365365669672
20
-93.704483773641186
10
103.14141580913284
20
-103.41109603701327
10
92.025779473358
20
-103.39708172806986
10
92.022029165500243
20
-106.37168850050627
10
103.13766550127508
20
-106.38570280944968
10
103.12384857743038
20
-117.34478051759355
10
88.250814417225257
20
-117.326028977929
10
88.246471957077276
20
-120.77030924907439
10
121.7499398900557
20
-120.81254956137909
10
121.75428235020368
20
-117.36826929023368
10
106.72468747620671
20
-117.34932036284023
10
106.73850440005141
20
-106.39024265469637
10
117.85414192791819
20
-106.40425696514274
10
117.85789223577595
20
-103.42965019270633
0
LINE
5
441
100
AcDbEntity
8
0
100
AcDbLine
10
144.17254505003734
20
-145.99155958160628
30
0
11
142.27905013236699
21
-145.99032327967967
31
0
0
LINE
5
442
100
AcDbEntity
8
0
100
AcDbLine
10
142.27905013236699
20
-145.99032327967967
30
0
11
142.27966828371947
21
-145.04357522479819
31
0
0
LWPOLYLINE
5
443
100
AcDbEntity
8
0
100
AcDbPolyline
90
8
70
1
43
0.0
10
133.75813457643488
20
-146.26878552762116
10
133.75893817397144
20
-145.03801186418261
10
137.69132312367549
20
-145.04057939950795
10
137.69231202446309
20
-143.52599904086532
10
133.75992721457874
20
-143.52321736055751
10
133.76094716469947
20
-141.96108247395676
10
131.86745105493654
20
-141.9598461712518
10
131.86463846667192
20
-146.26754922491619
0
LINE
5
444
100
AcDbEntity
8
0
100
AcDbLine
10
126.56711639102835
20
-139.73152719192026
30
0
11
125.90550572306893
21
-138.02694798738148
31
0
0
LINE
5
445
100
AcDbEntity
8
0
100
AcDbLine
10
131.87156176026298
20
-135.66397339442889
30
0
11
131.87199446543136
21
-135.00125094810448
31
0
0
LINE
5
446
100
AcDbEntity
8
0
100
AcDbLine
10
131.87199446543136
20
-135.00125094810448
30
0
11
133.19744174226545
21
-135.00211635999798
31
0
0
LINE
5
447
100
AcDbEntity
8
0
100
AcDbLine
10
136.60721711099205
20
-132.73214637237299
30
0
11
126.66636551496813
21
-132.72565578511785
31
0
0
LINE
5
448
100
AcDbEntity
8
0
100
AcDbLine
10
126.66636551496813
20
-132.72565578511785
30
0
11
126.66754000175949
21
-130.92683567293568
31
0
0
LINE
5
449
100
AcDbEntity
8
0
100
AcDbLine
10
126.66754000175949
20
-130.92683567293568
30
0
11
134.99892109657756
21
-130.93227540366996
31
0
0
LINE
5
450
100
AcDbEntity
8
0
100
AcDbLine
10
134.9998588915235
20
-129.49596771396938
30
0
11
135.00040465982349
21
-128.66008007195441
31
0
0
LINE
5
451
100
AcDbEntity
8
0
100
AcDbLine
10
135.00040465982349
20
-128.66008007195441
30
0
11
129.13056791165099
21
-128.65624753434739
31
0
0
LINE
5
452
100
AcDbEntity
8
0
100
AcDbLine
10
129.13056791165099
20
-128.65624753434739
30
0
11
129.13174239844233
21
-126.85742742216522
31
0
0
LINE
5
453
100
AcDbEntity
8
0
100
AcDbLine
10
129.13174239844233
20
-126.85742742216522
30
0
11
135.00157914661489
21
-126.86125995977223
31
0
0
LINE
5
454
100
AcDbEntity
8
0
100
AcDbLine
10
135.00157914661489
20
-126.86125995977223
30
0
11
135.00306270986081
21
-124.58906462805669
31
0
0
LINE
5
455
100
AcDbEntity
8
0
100
AcDbLine
10
135.00306270986081
20
-124.58906462805669
30
0
11
136.80188282204298
21
-124.59023911484805
31
0
0
LINE
5
456
100
AcDbEntity
8
0
100
AcDbLine
10
136.89618673671964
20
-125.15834976291218
30
0
11
136.89507406428521
21
-126.86249626169885
31
0
0
LINE
5
457
100
AcDbEntity
8
0
100
AcDbLine
10
139.16726879995443
20
-126.86397982455563
30
0
11
141.43946353562364
21
-126.86546338741239
31
0
0
LINE
5
458
100
AcDbEntity
8
0
100
AcDbLine
10
141.43946353562364
20
-126.86546338741239
30
0
11
141.43841267910278
21
-128.47493388861827
31
0
0
LINE
5
459
100
AcDbEntity
8
0
100
AcDbLine
10
143.71240064896219
20
-125.73084928480056
30
0
11
145.03729039826473
21
-126.58378675321637
31
0
0
LINE
5
460
100
AcDbEntity
8
0
100
AcDbLine
10
141.24745587461004
20
-130.93635520103962
30
0
11
147.78001506910698
21
-130.94062044381505
31
0
0
LINE
5
461
100
AcDbEntity
8
0
100
AcDbLine
10
147.78001506910698
20
-130.94062044381505
30
0
11
147.77884058231561
21
-132.73944055599719
31
0
0
LINE
5
462
100
AcDbEntity
8
0
100
AcDbLine
10
147.77884058231561
20
-132.73944055599719
30
0
11
139.25811166466022
21
-132.73387719615994
31
0
0
LINE
5
463
100
AcDbEntity
8
0
100
AcDbLine
10
136.89241601424789
20
-130.93351170559657
30
0
11
138.6912373185227
21
-130.93468619316627
31
0
0
LINE
5
464
100
AcDbEntity
8
0
100
AcDbLine
10
133.76283252515702
20
-139.0735026947072
30
0
11
142.28356263490505
21
-139.07906605532278
31
0
0
LINE
5
465
100
AcDbEntity
8
0
100
AcDbLine
10
142.28474988877389
20
-137.26069214664227
30
0
11
142.28523164355676
21
-136.5228463071428
31
0
0
LINE
5
466
100
AcDbEntity
8
0
100
AcDbLine
10
133.7645015338087
20
-136.51728294652719
30
0
11
133.76283252515702
21
-139.0735026947072
31
0
0
LINE
5
467
100
AcDbEntity
8
0
100
AcDbLine
10
138.58597136172168
20
-143.52636838442419
30
0
11
142.28065732432677
21
-143.52878072117312
31
0
0
LINE
5
468
100
AcDbEntity
8
0
100
AcDbLine
10
142.28257359351946
20
-140.59386175104052
30
0
11
133.7618434837714
21
-140.58829839042491
31
0
0
SPLINE
5
469
100
AcDbEntity
8
0
100
AcDbSpline
70
1064
71
3
72
9
73
5
74
3
42
0.000000001
43
0.0000000001
44
0.0000000001
40
0
40
0
40
0
40
0
40
0.28168735615009516
40
0.57060066218446104
40
0.57060066218446104
40
0.57060066218446104
40
0.57060066218446104
10
131.8702636432011
20
-137.65214311758737
30
0
10
131.02784618511137
20
-138.0712917247441
30
0
10
129.32140125981758
20
-138.92034109659406
30
0
10
127.49292978862951
20
-139.45885860795823
30
0
10
126.56711639102835
20
-139.73152719192026
30
0
11
131.8702636432011
21
-137.65214311758737
31
0
11
129.31327239753398
21
-138.83390977436218
31
0
11
126.56711639102835
21
-139.73152719192026
31
0
0
SPLINE
5
470
100
AcDbEntity
8
0
100
AcDbSpline
70
1064
71
3
72
9
73
5
74
3
42
0.000000001
43
0.0000000001
44
0.0000000001
40
0
40
0
40
0
40
0
40
0.29639785409025909
40
0.64272197149961685
40
0.64272197149961685
40
0.64272197149961685
40
0.64272197149961685
10
125.90550572306893
20
-138.02694798738148
30
0
10
126.85396037481389
20
-137.74389908322001
30
0
10
128.91063060786448
20
-137.1301235541365
30
0
10
130.83476288954961
20
-136.17736014732577
30
0
10
131.87156176026298
20
-135.66397339442889
30
0
11
125.90550572306893
21
-138.02694798738148
31
0
11
128.72268298886758
21
-137.10570912367768
31
0
11
131.87156176026298
21
-135.66397339442889
31
0
0
SPLINE
5
471
100
AcDbEntity
8
0
100
AcDbSpline
70
1064
71
3
72
9
73
5
74
3
42
0.000000001
43
0.0000000001
44
0.0000000001
40
0
40
0
40
0
40
0
40
0.21677222331963472
40
0.40992970250233995
40
0.40992970250233995
40
0.40992970250233995
40
0.40992970250233995
10
133.19744174226545
20
-135.00211635999796
30
0
10
133.82126733601351
20
-134.63606567036487
30
0
10
135.00096017738556
20
-133.94384114083726
30
0
10
136.09276323162376
20
-133.12022941264172
30
0
10
136.60721711099205
20
-132.73214637237299
30
0
11
133.19744174226545
21
-135.00211635999796
31
0
11
135.04434163486098
21
-133.86722408888835
31
0
11
136.60721711099205
21
-132.73214637237299
31
0
0
SPLINE
5
472
100
AcDbEntity
8
0
100
AcDbSpline
70
1064
71
3
72
9
73
5
74
3
42
0.000000001
43
0.0000000001
44
0.0000000001
40
0
40
0
40
0
40
0
40
0.044469514361363378
40
0.093263775184211972
40
0.093263775184211972
40
0.093263775184211972
40
0.093263775184211972
10
136.80188282204298
20
-124.59023911484805
30
0
10
136.99023312901818
20
-124.64109887989602
30
0
10
137.3852511753783
20
-124.74776462071817
30
0
10
137.06417116371753
20
-125.01732149670973
30
0
10
136.89618673671964
20
-125.15834976291218
30
0
11
136.80188282204298
21
-124.59023911484805
31
0
11
137.20412741273111
21
-124.77985203639005
31
0
11
136.89618673671964
21
-125.15834976291218
31
0
0
SPLINE
5
473
100
AcDbEntity
8
0
100
AcDbSpline
70
1064
71
3
72
9
73
5
74
3
42
0.000000001
43
0.0000000001
44
0.0000000001
40
0
40
0
40
0
40
0
40
0.17278148948330768
40
0.35650003268917452
40
0.35650003268917452
40
0.35650003268917452
40
0.35650003268917452
10
141.43841267910278
20
-128.47493388861827
30
0
10
141.8228554925428
20
-128.04578730341032
30
0
10
142.61607631711337
20
-127.16032919031852
30
0
10
143.33956062065567
20
-126.21698948342055
30
0
10
143.71240064896219
20
-125.73084928480056
30
0
11
141.43841267910278
21
-128.47493388861827
31
0
11
142.57536030248647
21
-127.17389798884868
31
0
11
143.71240064896219
21
-125.73084928480056
31
0
0
SPLINE
5
474
100
AcDbEntity
8
0
100
AcDbSpline
70
1064
71
3
72
9
73
5
74
3
42
0.000000001
43
0.0000000001
44
0.0000000001
40
0
40
0
40
0
40
0
40
0.047337532043494557
40
0.098321574521100408
40
0.098321574521100408
40
0.098321574521100408
40
0.098321574521100408
10
145.03729039826473
20
-126.58378675321637
30
0
10
145.18993166010921
20
-126.72640047436929
30
0
10
145.50697246374992
20
-127.0226137539121
30
0
10
145.07273897702117
20
-127.10762822784795
30
0
10
144.84756989647695
20
-127.15171195587476
30
0
11
145.03729039826473
21
-126.58378675321637
31
0
11
145.32106874589164
21
-126.96267201739937
31
0
11
144.84756989647695
21
-127.15171195587476
31
0
0
SPLINE
5
475
100
AcDbEntity
8
0
100
AcDbSpline
70
1064
71
3
72
9
73
5
74
3
42
0.000000001
43
0.0000000001
44
0.0000000001
40
0
40
0
40
0
40
0
40
0.27164404333302161
40
0.52271094113444161
40
0.52271094113444161
40
0.52271094113444161
40
0.52271094113444161
10
144.84756989647695
20
-127.15171195587476
30
0
10
144.26028175940735
20
-127.84199833368596
30
0
10
143.13019279784527
20
-129.17028161857149
30
0
10
141.85834558339639
20
-130.36331912617723
30
0
10
141.24745587461004
20
-130.93635520103962
30
0
11
144.84756989647695
21
-127.15171195587476
31
0
11
143.04742075927612
21
-129.18604519103226
31
0
11
141.24745587461004
21
-130.93635520103962
31
0
0
SPLINE
5
476
100
AcDbEntity
8
0
100
AcDbSpline
70
1064
71
3
72
9
73
5
74
3
42
0.000000001
43
0.0000000001
44
0.0000000001
40
0
40
0
40
0
40
0
40
0.21882992187434036
40
0.37900957635079802
40
0.37900957635079802
40
0.37900957635079802
40
0.37900957635079802
10
139.25811166466022
20
-132.73387719615994
30
0
10
138.70001467028115
20
-133.20496952842086
30
0
10
137.73340049069131
20
-134.02089316328306
30
0
10
136.67453809258458
20
-134.71200989817942
30
0
10
136.22703432579354
20
-135.00409444354756
30
0
11
139.25811166466022
21
-132.73387719615994
31
0
11
137.55306884680164
21
-134.1055486072573
31
0
11
136.22703432579354
21
-135.00409444354756
31
0
0
SPLINE
5
477
100
AcDbEntity
8
0
100
AcDbSpline
70
1064
71
3
72
9
73
5
74
3
42
0.000000001
43
0.0000000001
44
0.0000000001
40
0
40
0
40
0
40
0
40
0.15637477151214169
40
0.34221546428922023
40
0.34221546428922023
40
0.34221546428922023
40
0.34221546428922023
10
138.6912373185227
20
-130.93468619316627
30
0
10
139.09929298214709
20
-130.60978766970541
30
0
10
139.99229482018481
20
-129.89876953053957
30
0
10
140.80668400119933
20
-129.09866046491271
30
0
10
141.248939437856
20
-128.66415986932407
30
0
11
138.6912373185227
21
-130.93468619316627
31
0
11
139.89898984978271
21
-129.94138828227423
31
0
11
141.248939437856
21
-128.66415986932407
31
0
0
SPLINE
5
478
100
AcDbEntity
8
0
100
AcDbSpline
70
1064
71
3
72
8
73
4
74
0
42
0.000000001
43
0.0000000001
44
0.0000000001
40
0
40
0
40
0
40
0
40
0.093564892070048852
40
0.093564892070048852
40
0.093564892070048852
40
0.093564892070048852
10
31.532421527929827
20
-32.74724780941375
30
0
10
31.820342835208137
20
-32.619953723884223
30
0
10
32.108264142486448
20
-32.492659638354709
30
0
10
32.399152496227629
20
-32.378045003431083
30
0
0
SPLINE
5
479
100
AcDbEntity
8
0
100
AcDbSpline
70
1064
71
3
72
8
73
4
74
0
42
0.000000001
43
0.0000000001
44
0.0000000001
40
0.28497029826167913
40
0.28497029826167913
40
0.28497029826167913
40
0.28497029826167913
40
0.53187670880611948
40
0.53187670880611948
40
0.53187670880611948
40
0.53187670880611948
10
32.399152798716216
20
-35.773960340252401
30
0
10
31.710644092336921
20
-36.187879972623072
30
0
10
31.126396463808227
20
-36.806722278458381
30
0
10
30.542148835279534
20
-37.425564584293681
30
0
0
SPLINE
5
480
100
AcDbEntity
8
0
100
AcDbSpline
70
1064
71
3
72
8
73
4
74
0
42
0.000000001
43
0.0000000001
44
0.0000000001
40
0
40
0
40
0
40
0
40
0.25927593377608227
40
0.25927593377608227
40
0.25927593377608227
40
0.25927593377608227
10
30.384715305519418
20
-51.276078676185762
30
0
10
31.01446233893839
20
-51.907901576072433
30
0
10
31.644209372357363
20
-52.539724475959105
30
0
10
32.399152496229554
20
-52.912660285233237
30
0
0
SPLINE
5
481
100
AcDbEntity
8
0
100
AcDbSpline
70
1064
71
3
72
8
73
4
74
0
42
0.000000001
43
0.0000000001
44
0.0000000001
40
0.2825378070096316
40
0.2825378070096316
40
0.2825378070096316
40
0.2825378070096316
40
0.37622778951073899
40
0.37622778951073899
40
0.37622778951073899
40
0.37622778951073899
10
32.399152496218015
20
-56.330523509066552
30
0
10
32.10788135555331
20
-56.216436607391785
30
0
10
31.820071565658743
20
-56.088016432486768
30
0
10
31.532261775764184
20
-55.959596257581758
30
0
0
SPLINE
5
482
100
AcDbEntity
8
0
100
AcDbSpline
70
1064
71
3
72
9
73
5
74
0
42
0.000000001
43
0.0000000001
44
0.0000000001
40
0.060276652195048665
40
0.060276652195048665
40
0.060276652195048665
40
0.060276652195048665
40
0.25705445465569826
40
0.52947151649080304
40
0.52947151649080304
40
0.52947151649080304
40
0.52947151649080304
10
35.517729143477993
20
-53.416233561387116
30
0
10
36.183744004476182
20
-53.326217978100999
30
0
10
37.7316105051653
20
-53.028339347525282
30
0
10
38.870990199753663
20
-51.883976505079588
30
0
10
39.532520178732049
20
-51.219553283652729
30
0
0
SPLINE
5
483
100
AcDbEntity
8
0
100
AcDbSpline
70
1064
71
3
72
9
73
5
74
0
42
0.000000001
43
0.0000000001
44
0.0000000001
40
0
40
0
40
0
40
0
40
0.26752770604146997
40
0.4786266100364911
40
0.4786266100364911
40
0.4786266100364911
40
0.4786266100364911
10
39.611355263440366
20
-37.301334967255876
30
0
10
38.97251973360806
20
-36.637111100769722
30
0
10
37.829596301344544
20
-35.448766079516787
30
0
10
36.234657658639911
20
-35.166344763818785
30
0
10
35.517729143870717
20
-35.068796325562218
30
0
0
SPLINE
5
484
100
AcDbEntity
8
0
100
AcDbSpline
70
1064
71
3
72
9
73
5
74
0
42
0.000000001
43
0.0000000001
44
0.0000000001
40
0
40
0
40
0
40
0
40
0.28285138130273374
40
0.5209817508721768
40
0.5209817508721768
40
0.5209817508721768
40
0.5209817508721768
10
40.445312889406381
20
-55.272401038132784
30
0
10
39.605388463690645
20
-55.726481508653194
30
0
10
38.058338221636689
20
-56.562848782092061
30
0
10
36.318255032720707
20
-56.735919703405209
30
0
10
35.517729144113318
20
-56.797266852075445
30
0
0
LINE
5
485
100
AcDbEntity
8
0
100
AcDbLine
10
32.399152496227629
20
-32.378045003431083
30
0
11
32.399152798716216
21
-35.773960340252401
31
0
0
LINE
5
486
100
AcDbEntity
8
0
100
AcDbLine
10
32.399152496229554
20
-52.912660285233237
30
0
11
32.399152496218015
21
-56.330523509066552
31
0
0
LINE
5
487
100
AcDbEntity
8
0
100
AcDbLine
10
35.517729144113616
20
-31.845543138340933
30
0
11
35.517729143870724
21
-35.068796325562218
31
0
0
LINE
5
488
100
AcDbEntity
8
0
100
AcDbLine
10
35.517729143477993
20
-53.416233561387116
30
0
11
35.517729144113318
21
-56.797266852075445
31
0
0
LINE
5
489
100
AcDbEntity
8
0
100
AcDbLine
10
138.2642541546459
20
-135.00669067844964
30
0
11
138.26326593991755
21
-136.52022028269363
31
0
0
LINE
5
490
100
AcDbEntity
8
0
100
AcDbLine
10
139.55112394755716
20
-135.00669067844964
30
0
11
139.55013518422953
21
-136.52106050619315
31
0
0
LINE
5
491
100
AcDbEntity
8
0
100
AcDbLine
10
142.28439713923092
20
-137.26069191632482
30
0
11
144.17824480644421
21
-137.26192844856888
31
0
0
LINE
5
492
100
AcDbEntity
8
0
100
AcDbLine
10
142.28439713923092
20
-138.15435149473541
30
0
11
144.17766131790287
21
-138.15558764600777
31
0
0
LINE
5
493
100
AcDbEntity
8
0
100
AcDbLine
10
138.58597160287371
20
-143.52599904086532
30
0
11
138.58498232111438
21
-145.04116288804929
31
0
0
LINE
5
494
100
AcDbEntity
8
0
100
AcDbLine
10
142.28161545892311
20
-141.62175065896858
30
0
11
144.17539738117668
21
-141.6229871482864
31
0
0
LINE
5
495
100
AcDbEntity
8
0
100
AcDbLine
10
142.28136564817964
20
-142.44392629636198
30
0
11
144.17486056584997
21
-142.44516259828859
31
0
0
LINE
5
496
100
AcDbEntity
8
0
100
AcDbLine
10
131.86745105493654
20
-141.19279406133148
30
0
11
133.76144798864581
21
-141.19403069103473
31
0
0
LINE
5
497
100
AcDbEntity
8
0
100
AcDbLine
10
131.86795187888288
20
-141.19279438832979
30
0
11
131.87026364320113
21
-137.65214311758737
31
0
0
LINE
5
498
100
AcDbEntity
8
0
100
AcDbLine
10
133.7618434837714
20
-140.58829839042491
30
0
11
133.76144798864581
21
-141.19403069103473
31
0
0
LINE
5
499
100
AcDbEntity
8
0
100
AcDbLine
10
142.27966828371947
20
-145.04357522479819
30
0
11
138.58498232111438
21
-145.04116288804929
31
0
0
LINE
5
500
100
AcDbEntity
8
0
100
AcDbLine
10
142.28065732432677
20
-143.52878072117312
30
0
11
142.28136564817964
21
-142.44392629636198
31
0
0
LINE
5
501
100
AcDbEntity
8
0
100
AcDbLine
10
142.28190246350636
20
-141.62175084635979
30
0
11
142.28257359351946
21
-140.59386175104052
31
0
0
LINE
5
502
100
AcDbEntity
8
0
100
AcDbLine
10
144.17486056584997
20
-142.44516259828859
30
0
11
144.17254505003734
21
-145.99155958160628
31
0
0
LINE
5
503
100
AcDbEntity
8
0
100
AcDbLine
10
144.1797156026127
20
-135.00928691335167
30
0
11
144.17824480644421
21
-137.26192844856888
31
0
0
LINE
5
504
100
AcDbEntity
8
0
100
AcDbLine
10
144.17766131790287
20
-138.15558764600777
30
0
11
144.17539738117668
21
-141.6229871482864
31
0
0
LINE
5
505
100
AcDbEntity
8
0
100
AcDbLine
10
142.28523164355676
20
-136.5228463071428
30
0
11
139.55013518422953
21
-136.52106050619315
31
0
0
LINE
5
506
100
AcDbEntity
8
0
100
AcDbLine
10
138.26326593991755
20
-136.52022028269363
30
0
11
133.7645015338087
21
-136.51728294652719
31
0
0
LINE
5
507
100
AcDbEntity
8
0
100
AcDbLine
10
136.22703432579354
20
-135.00409444354756
30
0
11
138.2642541546459
21
-135.00669067844964
31
0
0
LINE
5
508
100
AcDbEntity
8
0
100
AcDbLine
10
139.55112394755716
20
-135.00669067844964
30
0
11
144.1797156026127
21
-135.00928691335167
31
0
0
LINE
5
509
100
AcDbEntity
8
0
100
AcDbLine
10
142.28439713923092
20
-138.15435149473541
30
0
11
142.28356263490505
21
-139.07906605532278
31
0
0
LINE
5
510
100
AcDbEntity
8
0
100
AcDbLine
10
134.9998588915235
20
-129.49596771396938
30
0
11
136.89335380919383
21
-129.49720401589599
31
0
0
LINE
5
511
100
AcDbEntity
8
0
100
AcDbLine
10
134.9998588915235
20
-130.01414470791337
30
0
11
136.89301548087994
21
-130.01538078893844
31
0
0
LINE
5
512
100
AcDbEntity
8
0
100
AcDbLine
10
138.51916660217267
20
-126.86397982455563
30
0
11
138.51799239167065
21
-128.66237677761194
31
0
0
LINE
5
513
100
AcDbEntity
8
0
100
AcDbLine
10
139.16726879995443
20
-126.86397982455563
30
0
11
139.16609431316306
21
-128.66279993673777
31
0
0
LINE
5
514
100
AcDbEntity
8
0
100
AcDbLine
10
136.89389957749381
20
-128.66131637388099
30
0
11
136.89335380919383
21
-129.49720401589599
31
0
0
LINE
5
515
100
AcDbEntity
8
0
100
AcDbLine
10
136.89301548087994
20
-130.01538078893844
30
0
11
136.89241601424789
21
-130.93351170559657
31
0
0
LINE
5
516
100
AcDbEntity
8
0
100
AcDbLine
10
141.248939437856
20
-128.66415986932407
30
0
11
139.16609431316306
21
-128.66279993673777
31
0
0
LINE
5
517
100
AcDbEntity
8
0
100
AcDbLine
10
138.51799239167065
20
-128.66237677761194
30
0
11
136.89389957749381
21
-128.66131637388099
31
0
0
LINE
5
518
100
AcDbEntity
8
0
100
AcDbLine
10
136.89507406428521
20
-126.86249626169885
30
0
11
138.51916660217267
21
-126.86397982455563
31
0
0
LINE
5
519
100
AcDbEntity
8
0
100
AcDbLine
10
134.9998588915235
20
-130.01414470791337
30
0
11
134.99892109657756
21
-130.93227540366996
31
0
0
ENDSEC
0
SECTION
2
OBJECTS
0
DICTIONARY
5
C
100
AcDbDictionary
3
ACAD_GROUP
350
D
3
ACAD_MLINESTYLE
350
17
0
DICTIONARY
5
D
100
AcDbDictionary
0
DICTIONARY
5
1A
330
C
100
AcDbDictionary
0
DICTIONARY
5
17
100
AcDbDictionary
0
ENDSEC
0
EOF
